<svg xmlns="http://www.w3.org/2000/svg" width="250" height="250" viewBox="0 0 250 250" fill="none">

<path d="M 7.41,72.61 C 7.41,65.39 12.78,61.54 16.68,61.54 H 65.91 C 72.49,61.54 75.36,67.92 75.36,71.62 V 176.76 C 75.36,178.88 72.92,186.71 65.42,186.71 H 16.19 C 10.18,186.71 7.41,180.41 7.41,177.68 V 72.61 Z" fill="#FEFFFE" stroke="#595D5F" stroke-width="2" stroke-linecap="round" stroke-linejoin="round"/>
<path d="M 12.38,77.36 L 69.32,77.61 V 169.71 L 12.38,169.62 V 77.36 Z" fill="#E6EBEE" stroke="#595D5F" stroke-width="1.8" stroke-linecap="round" stroke-linejoin="round"/>
<path d="M 34.41,69.39 L 48.07,69.39" stroke="#595D5F" stroke-width="2" stroke-linecap="round" stroke-linejoin="round"/>
<path d="M 41.75,182.68 C 45.42,182.68 46.35,179.91 46.35,178.35 C 46.35,175.28 44.14,173.88 41.75,173.88 C 38.65,173.88 36.82,175.97 36.82,178.27 C 36.82,180.96 38.92,182.68 41.75,182.68 Z" fill="#FEFFFE" stroke="#595D5F" stroke-width="2" stroke-linecap="round" stroke-linejoin="round"/>
<path d="M 138.43,80.46 H 237.68 C 241.69,80.46 242.69,84.75 242.69,86.11 V 166.86 C 242.69,170.08 240.25,171.19 238.69,171.19 H 138.43 C 134.98,171.19 133.34,168.91 133.34,166.39 V 86.11 C 133.34,82.28 135.61,80.46 138.43,80.46 Z" fill="#CCD1D4" stroke="#595D5F" stroke-width="2" stroke-linecap="round" stroke-linejoin="round"/>
<path d="M 133.61,97.09 L 242.51,96.92 V 166.65 C 242.51,169.38 240.51,171.02 237.96,171.02 H 138.97 C 135.8,171.02 133.61,169.02 133.61,165.91 V 97.09 Z" fill="#E9F0F4" stroke="#595D5F" stroke-width="1.8" stroke-linecap="round" stroke-linejoin="round"/>
<path d="M 142.96,91.48 C 145.54,91.48 145.41,89.07 145.41,88.91 C 145.41,87.21 144.06,86.41 143.02,86.41 C 141.12,86.41 140.22,87.76 140.22,88.82 C 140.22,90.21 141.28,91.48 142.96,91.48 Z" fill="#595D5F"/>
<path d="M 150.88,91.48 C 153.46,91.48 153.33,89.07 153.33,88.91 C 153.33,87.21 151.98,86.41 150.94,86.41 C 149.04,86.41 148.14,87.76 148.14,88.82 C 148.14,90.21 149.2,91.48 150.88,91.48 Z" fill="#595D5F"/>
<path d="M 159.79,91.48 C 162.37,91.48 162.24,89.07 162.24,88.91 C 162.24,87.21 160.89,86.41 159.85,86.41 C 157.95,86.41 157.05,87.76 157.05,88.82 C 157.05,90.21 158.11,91.48 159.79,91.48 Z" fill="#595D5F"/>
<path d="M 162.99,108.22 H 169.09 L 175.78,132.09 C 176.13,133.48 177.09,134.12 178.81,133.91 L 200.66,133.82" stroke="#595D5F" stroke-width="2" stroke-linecap="round" stroke-linejoin="round"/>
<path d="M 170.44,113.62 L 205.22,113.53 L 200.82,127.71 L 176.05,130.91" stroke="#595D5F" stroke-width="2" stroke-linecap="round" stroke-linejoin="round"/>
<path d="M 179.52,145.23 C 182.32,145.23 182.68,142.71 182.68,141.62 C 182.68,139.47 180.89,138.41 179.59,138.41 C 177.18,138.41 176.12,140.21 176.12,141.72 C 176.12,143.61 177.51,145.23 179.52,145.23 Z" fill="#CCD1D4" stroke="#595D5F" stroke-width="2" stroke-linecap="round" stroke-linejoin="round"/>
<path d="M 196.96,145.14 C 199.76,145.14 200.12,142.62 200.12,141.53 C 200.12,139.38 198.33,138.32 197.03,138.32 C 194.62,138.32 193.56,140.12 193.56,141.63 C 193.56,143.52 194.95,145.14 196.96,145.14 Z" fill="#CCD1D4" stroke="#595D5F" stroke-width="2" stroke-linecap="round" stroke-linejoin="round"/>
<path d="M 169.89,149.34 H 197.72 L 200.08,152.07 L 198.35,163.93 H 169.62 C 168.12,163.93 167.53,162.71 167.53,161.62 V 151.72 C 167.53,150.33 168.59,149.34 169.89,149.34 Z" fill="#2186D1"/>
<path d="M 197.42,152.33 L 199.09,150.66 L 201.43,150.77 L 203.19,151.91 L 205.62,151.41 L 207.42,153.08 L 208.42,155.6 L 208.87,158.03 L 207.51,159.84 L 206.78,162.09 L 204.12,163.18 L 201.69,162.73 L 199.09,163.74 L 196.91,161.22 L 195.82,157.76 L 196.82,154.42 L 197.42,152.33 Z" fill="#2186D1"/>
<path d="M 198.72,157.05 L 200.91,159.3 L 204.91,154.96" stroke="#FEFFFE" stroke-width="1.8" stroke-linecap="round" stroke-linejoin="round"/>
<path d="M 174.51,153.08 H 175.72 V 161.62 H 173.81 V 155.06 L 172.26,156.07 L 171.81,154.6 L 174.51,153.08 Z" fill="#FEFFFE"/>
<path d="M 180.51,152.91 C 182.41,152.91 183.31,153.81 183.31,155.06 C 183.31,155.97 182.77,156.51 182.19,156.87 V 156.9 C 183.01,157.31 183.62,157.98 183.62,159.03 C 183.62,160.45 182.52,161.54 180.51,161.54 C 178.59,161.54 177.49,160.51 177.49,159.11 C 177.49,158.06 178.13,157.36 178.88,156.93 V 156.89 C 178.17,156.46 177.71,155.85 177.71,154.96 C 177.71,153.71 178.74,152.91 180.51,152.91 Z M 180.51,157.61 C 179.68,157.96 179.21,158.41 179.21,159.01 C 179.21,159.67 179.72,160.18 180.54,160.18 C 181.39,160.18 181.89,159.71 181.89,159.06 C 181.89,158.38 181.28,157.96 180.51,157.61 Z M 180.57,154.21 C 179.84,154.21 179.38,154.63 179.38,155.24 C 179.38,155.9 180.01,156.31 180.76,156.64 C 181.46,156.33 181.95,155.89 181.95,155.28 C 181.95,154.68 181.46,154.21 180.57,154.21 Z" fill="#FEFFFE"/>
<path d="M 186.26,153.96 H 187.62 V 156.91 H 189.72 V 158.16 H 187.62 V 160.89 H 186.26 V 158.16 H 184.16 V 156.91 H 186.26 V 153.96 Z" fill="#FEFFFE"/>
<path d="M 230.56,74.51 V 70.25 C 230.56,65.91 227.31,63.71 224.06,63.71 H 223.24 C 218.71,63.71 215.46,67.16 215.46,72.16 V 74.51" stroke="#595D5F" stroke-width="2" stroke-linecap="round" stroke-linejoin="round"/>
<path d="M 214.11,74.51 H 232.23 C 234.13,74.51 235.03,76.31 235.03,77.61 V 88.91 C 235.03,91.35 233.4,92.36 231.4,92.36 H 214.11 C 211.93,92.36 211.2,90.72 211.2,89.26 V 77.61 C 211.2,75.72 212.55,74.51 214.11,74.51 Z" fill="#2186D1" stroke="#595D5F" stroke-width="2" stroke-linecap="round" stroke-linejoin="round"/>
<path d="M 223.24,80.2 C 225.14,80.2 225.76,81.71 225.76,82.62 C 225.76,83.87 224.71,84.77 224.35,85.03 V 87.13 H 222.26 V 85.03 C 221.43,84.41 220.91,83.69 220.91,82.62 C 220.91,81.23 222.17,80.2 223.24,80.2 Z" fill="#FEFFFE"/>
<path d="M 24.97,99.11 H 90.31 C 93.76,99.11 94.91,102.23 94.91,104.02 V 143.61 C 94.91,146.96 92.64,148.35 90.31,148.35 H 24.97 C 21.63,148.35 20.08,145.53 20.08,143.61 V 104.02 C 20.08,101.11 22.35,99.11 24.97,99.11 Z" fill="#FEFFFE" stroke="#595D5F" stroke-width="2" stroke-linecap="round" stroke-linejoin="round"/>
<path d="M 28.82,104.8 H 36.16 C 38.06,104.8 38.96,105.71 38.96,107.36 V 114.71 C 38.96,116.06 37.82,117.12 36.56,117.12 H 28.82 C 27.56,117.12 26.51,115.97 26.51,114.71 V 107.01 C 26.51,105.76 27.56,104.8 28.82,104.8 Z" fill="#979CA0"/>
<path d="M 44.33,108.14 H 64.61 V 113.53 H 44.33 V 108.14 Z" fill="#979CA0" stroke="#979CA0" stroke-width="1.2" stroke-linecap="round" stroke-linejoin="round"/>
<path d="M 26.87,122.16 H 38.65 V 126.91 H 26.87 V 122.16 Z" fill="#979CA0" stroke="#979CA0" stroke-width="1.2" stroke-linecap="round" stroke-linejoin="round"/>
<path d="M 44.15,122.16 H 54.83 V 126.91 H 44.15 V 122.16 Z" fill="#979CA0" stroke="#979CA0" stroke-width="1.2" stroke-linecap="round" stroke-linejoin="round"/>
<path d="M 60.66,122.16 H 70.79 V 126.91 H 60.66 V 122.16 Z" fill="#979CA0" stroke="#979CA0" stroke-width="1.2" stroke-linecap="round" stroke-linejoin="round"/>
<path d="M 76.62,122.16 H 88.4 V 126.91 H 76.62 V 122.16 Z" fill="#979CA0" stroke="#979CA0" stroke-width="1.2" stroke-linecap="round" stroke-linejoin="round"/>
<path d="M 26.87,134.37 H 60.66 V 139.76 H 26.87 V 134.37 Z" fill="url(#paint0_linear_357_2264)" stroke="url(#paint1_linear_357_2264)" stroke-width="1.2" stroke-linecap="round" stroke-linejoin="round"/>
<path d="M 66.88,133.82 L 68.97,133.09 H 69.33 V 140.82 H 67.78 V 134.93 L 66.52,135.38 L 66.07,134.12 L 66.88,133.82 Z" fill="#2186D1"/>
<path d="M 72.92,139.46 C 73.12,139.55 73.51,139.63 73.91,139.63 C 75.21,139.63 75.89,138.57 75.98,137.01 C 75.53,137.62 74.89,137.88 74.06,137.88 C 72.51,137.88 71.36,136.82 71.36,135.11 C 71.36,133.48 72.51,132.34 74.24,132.34 C 76.14,132.34 77.49,133.74 77.49,136.35 C 77.49,139.28 76.14,140.82 73.97,140.82 C 73.37,140.82 72.64,140.69 72.28,140.46 L 72.92,139.46 Z M 74.32,133.65 C 73.37,133.65 72.83,134.37 72.83,135.2 C 72.83,136.11 73.41,136.73 74.37,136.73 C 75.32,136.73 75.96,136.06 75.96,135.16 C 75.78,134.26 75.14,133.65 74.32,133.65 Z" fill="#2186D1"/>
<path d="M 78.13,132.51 H 83.41 V 133.35 L 80.25,140.73 H 78.61 L 81.68,133.82 H 78.13 V 132.51 Z" fill="#2186D1"/>
<path d="M 86.12,132.34 C 87.76,132.34 88.66,133.31 88.66,134.51 C 88.66,135.38 88.16,135.98 87.54,136.35 V 136.39 C 88.36,136.8 89.04,137.46 89.04,138.52 C 89.04,139.77 87.94,140.82 86.12,140.82 C 84.44,140.82 83.34,139.81 83.34,138.46 C 83.34,137.36 84.02,136.64 84.71,136.26 V 136.22 C 84.02,135.77 83.52,135.16 83.52,134.26 C 83.52,133.12 84.57,132.34 86.12,132.34 Z M 86.12,136.91 C 85.26,137.27 84.71,137.76 84.71,138.43 C 84.71,139.11 85.3,139.63 86.17,139.63 C 87.08,139.63 87.62,139.06 87.62,138.39 C 87.62,137.67 86.94,137.27 86.12,136.91 Z M 86.17,133.48 C 85.35,133.48 84.85,133.99 84.85,134.62 C 84.85,135.34 85.53,135.79 86.35,136.15 C 87.08,135.84 87.62,135.34 87.62,134.66 C 87.62,134.03 87.03,133.48 86.17,133.48 Z" fill="#2186D1"/>
<path d="M 100.51,124.81 H 116.93" stroke="#595D5F" stroke-width="2.4" stroke-linecap="round" stroke-linejoin="round" stroke-dasharray="0.1 4.8"/>
<path d="M 121.01,119.42 L 128.84,124.72 L 121.01,129.76 V 119.42 Z" fill="#2186D1" stroke="#595D5F" stroke-width="2" stroke-linecap="round" stroke-linejoin="round"/>
<defs>
<linearGradient id="paint0_linear_357_2264" x1="26.8672" y1="137.063" x2="60.6608" y2="137.063" gradientUnits="userSpaceOnUse">
<stop stop-color="#80868B"/>
<stop offset="1" stop-color="#A8ADB0"/>
</linearGradient>
<linearGradient id="paint1_linear_357_2264" x1="26.8672" y1="137.063" x2="60.6608" y2="137.063" gradientUnits="userSpaceOnUse">
<stop stop-color="#80868B"/>
<stop offset="1" stop-color="#A8ADB0"/>
</linearGradient>
</defs>
</svg>