<svg xmlns="http://www.w3.org/2000/svg" width="250" height="250" fill="none" viewBox="0 0 250 250">
<!-- SVG created with Arrow, by QuiverAI (https://quiver.ai) -->
  <path d="m7.01 22.99c0-6.58 5.01-9.49 9.49-9.49h153.7c6.6 0 9.75 5.29 9.75 9.66v114.8c0 5.25-4.27 8.86-9.02 8.86h-155.1c-5.58 0-8.77-4.55-8.77-8.62l0.01-115.2z" fill="#EBEEEE" stroke="#3B4851" stroke-miterlimit="10" stroke-width="2.29"/>
  <path d="m179.3 22.72c0-6.21-4.52-9.22-9.22-9.22h-154.2c-5.48 0-9.51 4.77-9.51 9.72v8.28h172.9v-8.78z" fill="#CDCFCF"/>
  <path d="m17.85 25.65c2.72 0 3.5-1.71 3.5-3.22 0-1.75-1.23-3.05-3.24-3.05-2.06 0-3.29 1.44-3.29 2.98 0 1.63 1.2 3.29 3.03 3.29z" fill="#3B4851"/>
  <path d="m27.89 25.49c2.37 0.42 3.44-1.24 3.69-2.74 0.33-1.88-0.87-3.27-2.66-3.43-1.89-0.17-3.23 1.15-3.39 2.69-0.18 1.62 0.7 3.21 2.36 3.48z" fill="#3B4851"/>
  <path d="m37.75 22.6c-0.11 2.09 1.26 3.11 2.71 3.11 2.18 0 3.12-1.4 3.19-3 0.08-1.83-1.18-3.05-2.89-3.05-1.78 0-2.91 1.22-3.01 2.94z" fill="#3B4851"/>
  <path d="m14 45.66h97.13c3.08 0 4.18 2.67 4.18 4.4v13.93c0 2.72-1.93 4.22-3.9 4.22h-88.19c-2.54 0-4.5-2.13-4.5-4.14v-12.91l-4.96-5.5h0.24z" fill="#A9ACAF"/>
  <path d="m104.8 50.91h-76.97c-1.16 0-1.84 0.77-1.84 1.74s0.86 1.66 1.73 1.66h77c1 0 1.73-0.83 1.67-1.76-0.06-0.94-0.77-1.64-1.59-1.64z" fill="#797C7F"/>
  <path d="m77.23 58.91h-49.41c-1.16 0-1.84 0.77-1.84 1.74s0.86 1.66 1.73 1.66h49.41c1.19 0 1.8-0.83 1.74-1.76-0.05-0.94-0.73-1.64-1.63-1.64z" fill="#797C7F"/>
  <path d="m142.7 76.94h-96.98c-3.08 0-4.47 2.05-4.47 5.28v13.59c0 3.14 2.02 4.18 4.35 4.18h87.27c2.83 0 3.74-2.28 3.74-3.82v-12.57l6.37-6.66h-0.28z" fill="#797C7F"/>
  <path d="m128.4 83.59h-78.6c-1.16 0-1.84 0.77-1.84 1.74s0.86 1.66 1.73 1.66h78.6c1 0 1.73-0.83 1.67-1.76-0.06-0.94-0.74-1.64-1.56-1.64z" fill="#656A6E"/>
  <path d="m105.1 90.83h-55.45c-0.99 0-1.67 0.83-1.67 1.68 0 0.97 0.86 1.66 1.73 1.66h55.22c0.99 0 1.72-0.83 1.66-1.76-0.06-0.88-0.8-1.58-1.49-1.58z" fill="#656A6E"/>
  <path d="m13.88 109.2h97.13c3.08 0 4.18 2.3 4.18 4.4v13.47c0 2.99-1.93 4.68-3.9 4.68h-88.19c-2.54 0-4.18-2.46-4.18-4.14v-12.45l-5.4-5.96h0.36z" fill="#A9ACAF"/>
  <path d="m104.8 115.7h-76.97c-1.16 0-1.84 0.77-1.84 1.74s0.86 1.66 1.73 1.66h77c1 0 1.73-0.83 1.67-1.76-0.06-0.94-0.77-1.64-1.59-1.64z" fill="#797C7F"/>
  <path d="m76.96 122.7h-49.14c-1.16 0-1.84 0.77-1.84 1.74s0.86 1.66 1.73 1.66h49.14c1 0 1.73-0.83 1.67-1.76-0.06-0.94-0.74-1.64-1.56-1.64z" fill="#797C7F"/>
  <path d="m231.6 50.41h-68.46c-8.47 0-14.49 7.42-14.49 14.66v158.4c0 7.75 6.59 13.03 13.42 13.03h69.5c8.47 0 13.13-6.92 13.13-12.73v-158.7c0-7.92-6.13-14.66-13.1-14.66z" fill="#3B4851"/>
  <path d="m230.3 56.22h-7.41c-2 0-2.84 0.69-2.84 2.51 0 3.68-2.15 5.18-5.16 5.18h-36.33c-3.36 0-5.51-1.65-5.51-5.18 0-1.54-0.97-2.51-2.8-2.51h-6.56c-6.67 0-9.39 4.84-9.39 9.79v156.3c0 6.21 4.67 9.01 9.33 9.01h66.36c6.6 0 8.9-5.29 8.9-8.67v-157.4c0-5.42-3.92-8.96-8.59-8.96z" fill="#fff"/>
  <path d="m165.7 114.3v21.62h21.62v-21.62h-21.62zm17.82 17.82h-14.02v-14.02h14.02v14.02z" fill="#808080"/>
  <path d="m187.3 153.9h-21.62v21.62h21.62v-21.62zm-3.8 17.82h-14.02v-14.02h14.02v14.02z" fill="#808080"/>
  <path d="m205.3 114.3v21.62h23.21v-21.62h-23.21zm18.59 17.82h-14.79v-14.02h14.79v14.02z" fill="#808080"/>
  <path d="m196.6 114.3v4.89h-3.8v9.05h3.8v-4.89h3.8v-9.05h-3.8z" fill="#808080"/>
  <path d="m165.7 140.1v3.8h3.8v-3.8h-3.8z" fill="#808080"/>
  <path d="m176.6 143.9v3.11h-7.07v2.52h10.87v-5.63h-3.8z" fill="#808080"/>
  <path d="m212.9 140.7v8.79h4.53v-2.52h3.8v10.24h3.8v-10.24h3.48v-2.51h-4.11v-3.76h-11.5z" fill="#808080"/>
  <path d="m217.5 157.2v4.44h5.12v3.8h5.37v3.8h-5.37v-3.8h-9.05v-5.08h-6.71v-3.16h10.64z" fill="#808080"/>
  <path d="m220.1 171.8v3.8h4.4v-3.8h-4.4z" fill="#808080"/>
  <path d="m192.1 161.7v3.8h6.31v3.16h-5.07v3.16h2.52v3.8h3.15v-3.8h7.39v3.8h3.8v-4.44h4.44v-3.2h-4.44v-4.44h-3.8v4.44h-4.19v-1.85h-3.8v-4.43h-6.31z" fill="#808080"/>
  <path d="m181.9 135.1v8.6c0 9.36 7.04 15.23 14.49 18.66 0.82 0.38 1.46 0.38 2.3 0 7.45-3.43 13.51-9.3 13.51-18.66v-8.02c0-2.29-1.51-2.99-3.41-3.69-3.14-1.18-6.09-2.02-9.1-4.1-0.79-0.52-2-0.4-2.67 0.08-2.92 2.17-5.93 2.95-9.42 4.13-2.84 0.97-5.7 0.8-5.7 3z" fill="#E6E6E6"/>
  <path d="m184.5 135.1v7.69c0 8.18 6.19 13.37 12.72 16.41 0.72 0.34 1.28 0.34 2.02 0 6.53-3.04 10.66-8.23 10.66-16.41v-6.93c0-1.18-1.17-1.53-2.34-2.01-2.76-1.18-5.53-1.93-8.11-3.75-0.68-0.48-1.45-0.44-2.05 0-2.51 1.82-5.27 2.65-8.28 3.66-2.04 0.7-4.62 0.22-4.62 1.34z" fill="#003E8A"/>
  <path d="m190.9 145.1 4.54 4.54 7.57-8.79" stroke="#fff" stroke-linecap="round" stroke-linejoin="round" stroke-width="3.311"/>
  <path d="m133.1 188.6c0-2.16 2.64-2.72 4.12-3.65 1.49-0.93 1.18-4.54 3.5-5.47 2.02-0.84 4.15 0.46 5.63-0.24 2.02-0.93 2.14-2.86 4.34-2.86s2.58 2.26 4.33 2.86c1.62 0.6 3.25-0.76 4.87 0.24 1.75 1.05 1.38 3.68 2.86 4.9 1.35 1.14 3.5 1.42 3.78 3.49 0.28 1.82-0.85 3.33 0.5 5.15 1.1 1.5 1.74 1.86 1.74 2.91 0 1.64-1.74 2.86-2.24 4.08-0.85 2.07 0.5 4.14-0.85 5.68-1.1 1.34-2.63 0.88-4.11 2.38-1.35 1.38-1.29 2.76-2.77 3.12-1.9 0.48-2.93-0.9-4.93 0-1.84 0.85-2.05 2.29-3.67 2.29-1.93 0-2.61-2.41-4.48-3.19-2.02-0.87-3.7 0.66-5.72-0.56-1.75-1.05-1.5-3.4-3.25-4.56-1.35-0.93-3.03-0.57-3.65-2.53-0.64-2.15 0.62-3.65-0.64-5.72-0.89-1.54-1.27-1.66-0.89-3.2 0.5-1.82 1.53-2.87 1.53-5.12z" fill="#003E8A"/>
  <path d="m143.3 195.5 4.54 4.78 10.16-10.59" stroke="#fff" stroke-linecap="round" stroke-linejoin="round" stroke-width="3.311"/>
  <path d="m67.76 154.6v41.49h48.28" stroke="#3B4851" stroke-dasharray="0.1 8.33" stroke-linecap="round" stroke-linejoin="round" stroke-width="4.58"/>
  <path d="m126.5 195.2-14.31-9.4v18.8l14.31-9.4z" fill="#3B4851"/>
</svg>