<svg xmlns="http://www.w3.org/2000/svg" width="250" height="250" viewBox="0 0 250 250" fill="none">

<path d="M 7.69,65.31 L 88.95,16.42 L 168.71,65.31 V 70.72 H 7.69 V 65.31 Z" fill="#CCD7E1" stroke="black" stroke-width="3.2" stroke-linejoin="round"/>
<path d="M 88.95,28.38 L 33.99,61.67 H 142.29 L 88.95,28.38 Z" fill="#CCD7E1" stroke="black" stroke-width="3.2" stroke-linejoin="round"/>
<path d="M 158.88,70.72 H 16.38 V 80.55 H 158.88 V 70.72 Z" fill="#CCD7E1" stroke="black" stroke-width="3.2" stroke-linejoin="round"/>
<path d="M 23.09,80.55 H 115.18 V 163.56 H 23.09 V 80.55 Z" fill="#CCD7E1" stroke="black" stroke-width="3.2" stroke-linejoin="round"/>
<path d="M 111.86,173.39 H 7.69 V 183.91 H 111.86 V 173.39 Z" fill="#CCD7E1" stroke="black" stroke-width="3.2" stroke-linejoin="round"/>
<path d="M 16.71,163.56 H 115.18 V 173.39 H 16.71 V 163.56 Z" fill="#CCD7E1" stroke="black" stroke-width="3.2" stroke-linejoin="round"/>
<path d="M 42.61,80.55 V 163.56" stroke="black" stroke-width="3.2" stroke-linejoin="round"/>
<path d="M 60.79,80.55 V 163.56" stroke="black" stroke-width="3.2" stroke-linejoin="round"/>
<path d="M 79.64,80.55 V 163.56" stroke="black" stroke-width="3.2" stroke-linejoin="round"/>
<path d="M 96.82,80.55 V 163.56" stroke="black" stroke-width="3.2" stroke-linejoin="round"/>
<path d="M 182.55,79.69 H 124.42 C 116.48,79.69 112.28,87.09 112.28,92.98 V 219.25 C 112.28,226.24 118.19,232.01 124.42,232.01 H 182.55 C 189.81,232.01 193.92,224.44 192.71,219.25 V 92.98 C 192.71,85.81 187.02,79.69 182.55,79.69 Z" fill="#003A8B" stroke="black" stroke-width="3.2" stroke-linejoin="round"/>
<path d="M 181.31,85.08 H 171.61 C 170.81,85.08 170.16,85.73 170.16,86.53 V 87.67 C 170.16,90.09 168.55,91.43 166.72,91.43 H 139.22 C 137.19,91.43 135.53,89.77 135.53,87.74 C 135.53,86.27 134.34,85.08 132.87,85.08 H 125.71 C 119.82,85.08 115.61,88.88 115.61,94.77 V 218.42 C 115.61,224.01 119.61,227.06 124.11,227.06 H 181.61 C 187.11,227.06 189.97,222.82 189.97,218.72 V 93.58 C 189.97,88.89 186.18,85.08 181.31,85.08 Z" fill="#FEFFFE" stroke="black" stroke-width="2.4" stroke-linejoin="round"/>
<path d="M 139.69,220.41 H 166.93" stroke="black" stroke-width="2.4" stroke-linecap="round" stroke-linejoin="round"/>
<path d="M 218.18,123.56 H 136.96 C 132.41,123.56 130.49,127.91 130.49,130.71 V 176.19 C 130.49,179.91 133.31,182.91 136.79,182.91 H 218.33 C 223.12,182.91 224.91,178.99 224.91,176.19 V 130.71 C 224.91,126.41 221.66,123.56 218.18,123.56 Z" fill="#FEFFFE" stroke="#003A8B" stroke-width="5" stroke-linejoin="round"/>
<path d="M 140.01,173.91 H 214.83" stroke="#003A8B" stroke-width="3.2" stroke-linecap="round" stroke-linejoin="round"/>
<path d="M 180.91,137.72 H 214.83" stroke="#003A8B" stroke-width="3.2" stroke-linecap="round" stroke-linejoin="round"/>
<path d="M 181.19,145.91 H 214.83" stroke="#003A8B" stroke-width="3.2" stroke-linecap="round" stroke-linejoin="round"/>
<path d="M 180.91,154.1 H 198.09" stroke="#003A8B" stroke-width="3.2" stroke-linecap="round" stroke-linejoin="round"/>
<path d="M 162.19,150.57 C 159.92,149.78 158.71,149.61 158.71,148.81 C 158.71,148.21 159.71,147.74 160.74,146.38 C 162.19,144.36 163.42,142.38 163.19,139.27 C 162.74,134.71 159.28,131.49 154.98,131.49 C 149.75,131.49 146.01,135.64 146.01,140.1 C 146.01,143.82 147.62,146.26 149.52,148.14 C 149.98,148.61 150.06,148.78 150.06,148.95 C 150.06,149.48 148.72,149.78 147.28,150.31 C 142.81,151.93 138.43,154.71 138.43,163.43 C 138.43,165.62 147.05,167.07 154.75,167.07 C 162.45,167.07 170.59,164.99 170.59,163.99 C 170.59,156.91 168.06,152.78 162.19,150.57 Z" fill="#003A8B"/>
<path d="M 243.08,74.23 C 236.72,73.76 229.12,68.84 228.65,68.84 C 228.18,68.84 221.13,73.99 211.91,74.23 C 210.97,74.26 210.47,75.11 210.47,76.29 C 210.06,89.71 215.4,101.78 227.39,106.11 C 228.41,106.49 230.75,105.38 233.88,102.61 C 241.82,95.71 244.31,85.66 244.11,76.71 C 244.08,75.58 243.94,74.31 243.08,74.23 Z" fill="#003A8B"/>
<path d="M 220.69,87.69 L 225.83,92.4 L 235.66,82.02" stroke="#FEFFFE" stroke-width="3.2" stroke-linecap="round" stroke-linejoin="round"/>
<path d="M 143.43,38.31 L 154.61,30.06 C 155.48,29.39 156.07,29.82 155.69,30.86 L 153.77,36.71 C 153.57,37.31 153.73,37.97 154.21,38.35 L 156.8,45.31 C 157.48,46.31 156.78,46.83 155.82,46.28 L 143.31,39.69 C 142.34,39.18 142.48,38.89 143.43,38.31 Z" fill="#4D4D4D"/>
<path d="M 157.72,37.92 C 178.11,37.19 199.51,45.18 212.41,66.91" stroke="#4D4D4D" stroke-width="3.2" stroke-linecap="round" stroke-linejoin="round" stroke-dasharray="4 6"/>
<path d="M 228.09,113.16 L 227.91,116.21" stroke="#4D4D4D" stroke-width="3.2" stroke-linecap="round"/>
</svg>