<svg width="126" height="42" viewBox="0 0 126 42" fill="none" xmlns="http://www.w3.org/2000/svg">
<path d="M55.638 17.2021C53.8094 13.8268 50.6502 11.3935 47.2706 9.69638C43.6046 7.85903 39.4421 6.3649 35.3336 6.0392C31.7772 5.75585 28.0003 6.59128 25.3231 9.06543C23.4901 10.7713 22.05 13.5668 21.0554 15.7854C20.2287 17.6315 19.554 19.5842 19.478 21.6217C19.332 25.6191 21.5768 29.3304 23.4843 32.6881C25.3085 35.8955 27.5489 38.8501 31.1536 40.1193C34.6033 41.3345 38.5702 41.2016 42.109 40.4465C49.0802 38.9538 55.2699 34.1516 56.859 26.9687C57.5878 23.6825 57.2563 20.183 55.6351 17.205L55.638 17.2021Z" fill="#DCE5F2"/>
<mask id="mask0_5295_1421" style="mask-type:luminance" maskUnits="userSpaceOnUse" x="0" y="0" width="30" height="32">
<path d="M21.1051 29.5889C23.7516 27.9151 25.5582 25.2116 26.753 22.3694C28.047 19.2848 29.0329 15.8175 29.0738 12.4568C29.1088 9.54739 28.2223 6.51969 26.0621 4.47786C24.5738 3.08013 22.2195 2.06214 20.3602 1.37423C18.812 0.801696 17.1864 0.359153 15.5258 0.410272C12.2644 0.511049 9.3682 2.54119 6.74215 4.27777C4.23149 5.9384 1.95014 7.92327 1.11617 10.9261C0.317257 13.8005 0.642956 17.0209 1.45209 19.8588C3.04992 25.4482 7.29716 30.2213 13.2284 31.121C15.9421 31.5343 18.7711 31.0713 21.1051 29.5889Z" fill="white"/>
</mask>
<g mask="url(#mask0_5295_1421)">
<path d="M3.75098 30.5557C11.2099 26.1551 18.2614 21.9941 25.3158 17.8315C26.3572 17.2167 27.4117 16.6909 28.4413 15.9591C33.1837 12.5853 36.4714 12.023 39.9328 11.0663C40.7347 10.8443 40.9917 11.4227 41.6811 11.709C37.6018 14.0969 33.9899 16.2469 30.4028 18.3048C23.4142 22.3154 16.4372 26.2866 9.46167 30.2534C5.02895 32.7743 5.03333 32.7597 3.75098 30.5557Z" fill="#DCE5F2"/>
<path d="M6.2879 33.9384C9.79319 31.879 12.7814 30.0928 15.7463 28.3898C23.512 23.9293 31.2748 19.479 39.0171 15.0945C40.1957 14.4271 42.1572 12.7124 42.2127 13.9422C42.2434 14.6082 39.3895 17.76 37.9655 18.6495C36.0434 19.8515 34.1301 21.0009 32.2168 22.1504C26.0709 25.8455 19.9366 29.4823 13.7775 33.2461C11.2289 34.803 10.0181 34.6613 8.80295 34.4437C8.04493 34.3079 7.31174 34.1443 6.2879 33.9384Z" fill="#DCE5F2"/>
<path d="M27.5679 9.26548C25.4092 10.6457 23.2783 11.4008 21.2029 12.6247C18.8018 14.0414 16.3291 15.7619 13.8885 17.3335C10.763 19.3461 7.6345 21.3835 4.51918 23.3319C2.70812 24.4638 1.93987 25.0977 1.31038 23.678C1.00659 22.9945 0.632694 22.3227 1.4798 21.645C3.04842 20.7438 5.41011 19.0029 6.81952 18.1003C10.9105 15.4801 15.0102 12.781 19.1056 10.1243C20.588 9.16324 22.0661 8.23872 23.547 7.28353C26.6127 5.30743 27.6176 5.69155 27.6774 7.21489C27.6906 7.56249 27.7899 7.85168 27.9184 8.19637C27.9988 8.41399 28.0762 8.93832 27.5679 9.26402V9.26548Z" fill="#DCE5F2"/>
<path d="M29.9574 12.93C27.0129 14.633 24.1926 16.2542 21.3577 17.9338C16.871 20.592 12.3827 23.2341 7.87115 26.0325C2.52705 29.3479 2.51537 29.418 2.42773 26.1347C4.15409 25.2058 5.77382 24.4726 7.43007 23.4108C10.0444 21.7356 12.6968 19.7376 15.3111 18.0696C17.778 16.4952 20.2156 15.1705 22.6649 13.7406C22.8358 13.6398 30.1399 10.0133 30.9578 11.6491C31.1273 11.988 30.562 12.5795 29.9588 12.9271L29.9574 12.93Z" fill="#DCE5F2"/>
<path d="M26.3177 3.9039C18.3066 9.03768 9.72161 14.4534 1.14096 19.9523C-2.0065 20.2546 -1.72169 18.7707 -0.801554 17.002C-0.722685 16.8516 1.91942 15.1924 5.44808 13.0425C11.1237 9.58392 19.0909 4.85617 22.3596 3.09622C25.9117 1.18438 26.1439 1.43559 26.3191 3.9039H26.3177Z" fill="#DCE5F2"/>
<path d="M21.6922 2.11324C20.8977 2.79092 9.08924 9.55175 3.52606 12.4757C1.45794 13.5624 -0.544452 15.5093 -1.01474 15.3661C-1.60626 15.1865 -2.68414 13.7698 -1.50256 12.7328C0.894176 10.6282 6.93641 7.3551 9.46314 5.76458C11.8979 4.23247 19.4853 0.0714062 20.9663 0.199933C21.9975 0.289026 22.7818 1.18433 21.6922 2.11324Z" fill="#DCE5F2"/>
<path d="M-4.11841 8.87409C-3.32388 8.1964 8.48602 1.43558 14.0477 -1.48842C16.1159 -2.57506 18.1183 -4.52195 18.5885 -4.37882C19.1801 -4.19917 20.2579 -2.78245 19.0764 -1.74547C16.6796 0.359162 10.6374 3.63222 8.11066 5.22129C5.67594 6.75339 -1.91154 10.9145 -3.39252 10.7874C-4.42366 10.6983 -5.20797 9.80299 -4.11841 8.87409Z" fill="#DCE5F2"/>
<path d="M37.5039 20.3305C31.7246 26.957 19.2633 34.4203 14.3734 34.1793C22.0836 29.5626 29.7938 24.9458 37.5039 20.3305Z" fill="#DCE5F2"/>
</g>
<path d="M33.6496 16.5317C33.7431 16.7113 33.746 16.9245 33.6525 17.1057L25.9511 32.1667L25.7919 32.4763L25.789 32.4836C25.4896 33.005 25.0529 33.4549 24.495 33.7777C22.7978 34.7592 20.6275 34.1764 19.6475 32.4778C19.6241 32.4384 19.6022 32.3975 19.5817 32.358L10.9383 15.9986C10.5439 15.2522 11.0843 14.354 11.9271 14.354H31.4311C32.0912 14.354 32.6973 14.7191 33.0055 15.3048L33.6511 16.5302H33.6496V16.5317Z" fill="#0048D2"/>
<path d="M23.5485 9.55318C24.511 11.4811 23.7311 13.0439 21.8046 13.0439C19.8782 13.0439 17.5384 11.4826 16.5745 9.55318C15.612 7.62527 16.9527 6.66278 18.8777 6.66278C20.8027 6.66278 22.586 7.62527 23.5471 9.55318H23.5485Z" fill="#0048D2"/>
<path d="M31.7465 19.6104C31.824 19.7565 31.8254 19.9347 31.7495 20.0822L28.7656 32.4748L28.6341 32.729L28.6312 32.7348C28.3844 33.1642 28.0251 33.5352 27.565 33.7995C26.1688 34.6058 24.384 34.1282 23.5763 32.7304C23.5573 32.6983 23.5383 32.6647 23.5208 32.6311L16.6198 19.3212C16.2955 18.7078 16.7395 17.9688 17.4333 17.9688L29.9165 17.8184C30.4598 17.8184 30.9579 18.1192 31.212 18.5997L31.7436 19.609L31.7465 19.6104Z" fill="#FFF1BA"/>
<path d="M30.3035 22.1123C30.3474 22.1956 30.3488 22.2964 30.305 22.3811L29.0796 29.4618L29.0051 29.6078V29.6107C28.862 29.8561 28.6575 30.0679 28.3946 30.2198C27.5972 30.6813 26.5762 30.4067 26.1162 29.6093C26.106 29.5903 26.0957 29.5713 26.0855 29.5538L22.1669 22.0072C21.9814 21.6567 22.2355 21.2346 22.6313 21.2346L29.2607 21.09C29.5703 21.09 29.8566 21.2623 30.0012 21.5369L30.305 22.1123H30.3035Z" fill="#FF6E70"/>
<path d="M58.8599 8.93831L47.4225 31.2115C46.457 33.0897 44.5204 34.2669 42.4099 34.2567H22.6591C23.5792 34.2567 24.5592 33.4447 25.1843 32.1623C25.1858 32.1579 25.1902 32.1535 25.1902 32.1506L25.2866 31.9593L26.2505 30.0767L37.6909 7.74944C38.5103 6.15307 40.1577 5.15114 41.9513 5.15991L44.9366 5.17451C45.347 5.17597 45.6128 5.60975 45.4303 5.97781L44.5802 7.79618C43.3841 10.1871 44.256 12.1267 46.5286 12.131C49.0466 12.131 51.2052 10.986 52.8104 7.8064C53.0952 7.24263 53.8912 5.52504 53.8912 5.52504C53.9846 5.33663 54.1789 5.21833 54.3892 5.21833L56.6121 5.22855C60.1773 5.22855 59.2104 8.22557 58.8599 8.93685V8.93831Z" fill="#0048D2"/>
<path d="M44.4985 16.6427H45.3266L44.4488 17.186L44.3744 18.0477L43.9143 17.5161L43.038 18.0477L43.6397 17.186L43.1782 16.6427H44.0034L44.5818 15.8014L44.4985 16.6427Z" fill="#FFF1BA"/>
<path d="M40.2162 27.7354H41.0794L40.1812 28.2597L40.1315 29.0879L39.6349 28.5781L38.7426 29.0879L39.3399 28.2597L38.8433 27.7354H39.7036L40.279 26.9277L40.2162 27.7354Z" fill="#FFF1BA"/>
<path d="M43.2264 27.0008H44.0867L43.1972 27.5237L43.1534 28.3532L42.6553 27.8421L41.7673 28.3532L42.3574 27.5237L41.8564 27.0008H42.7152L43.2819 26.1917L43.2264 27.0008Z" fill="#FFF1BA"/>
<path d="M46.8748 17.3817H47.7059L46.8383 17.9046L46.7857 18.7342L46.3096 18.223L45.4464 18.7342L46.0262 17.9046L45.5501 17.3817H46.3797L46.9376 16.574L46.8748 17.3817Z" fill="#FFF1BA"/>
<path d="M48.071 19.4191H48.9079L48.0389 19.942L47.9936 20.7716L47.5101 20.2604L46.6455 20.7716L47.2224 19.942L46.7375 19.4191H47.5715L48.125 18.6115L48.071 19.4191Z" fill="#FFF1BA"/>
<path d="M45.997 24.9911H46.85L45.9678 25.5154L45.9284 26.345L45.4303 25.8338L44.554 26.345L45.1353 25.5154L44.6373 24.9911H45.4873L46.0467 24.1834L45.997 24.9911Z" fill="#FFF1BA"/>
<path d="M47.7949 22.1635H48.6406L47.7672 22.6864L47.7263 23.516L47.2356 23.0033L46.3636 23.516L46.942 22.6864L46.4483 22.1635H47.2911L47.8461 21.3544L47.7949 22.1635Z" fill="#FFF1BA"/>
<path d="M41.5234 17.389H42.3545L41.4767 17.9133L41.408 18.7414L40.9421 18.2302L40.0687 18.7414L40.6646 17.9133L40.2002 17.389H41.0268L41.6008 16.5798L41.5234 17.389Z" fill="#FFF1BA"/>
<path d="M38.7966 19.4264H39.6349L38.7498 19.9493L38.6753 20.7789L38.2094 20.2677L37.3273 20.7789L37.9305 19.9493L37.4631 19.4264H38.2985L38.8798 18.6173L38.7966 19.4264Z" fill="#FFF1BA"/>
<path d="M36.968 22.1693H37.8136L36.9198 22.6936L36.8467 23.5218L36.375 23.012L35.4841 23.5218L36.0931 22.6936L35.6214 22.1693H36.4641L37.0483 21.3616L36.968 22.1693Z" fill="#FFF1BA"/>
<path d="M36.54 24.9984H37.3945L36.4933 25.5227L36.4261 26.3523L35.9471 25.8411L35.0503 26.3523L35.6593 25.5227L35.1788 24.9984H36.0303L36.616 24.1907L36.54 24.9984Z" fill="#FFF1BA"/>
<path d="M37.7202 27.008H38.579L37.6793 27.5309L37.6179 28.3605L37.1301 27.8493L36.2333 28.3605L36.8395 27.5309L36.3502 27.008H37.2075L37.7888 26.1989L37.7202 27.008Z" fill="#FFF1BA"/>
<path d="M79.4608 12.9636C79.3965 12.9636 79.3527 12.9519 79.3293 12.9271C79.3104 12.9023 79.3001 12.8672 79.3001 12.8234V8.17744C79.3001 8.08396 79.3469 8.03577 79.4389 8.03577H80.9286C81.3347 8.03577 81.6691 8.10295 81.9335 8.23586C82.1978 8.36439 82.4052 8.54111 82.5571 8.76311C82.7134 8.98658 82.8215 9.24655 82.8799 9.54304C82.9442 9.84099 82.9748 10.155 82.9748 10.4865C82.9748 10.8181 82.9456 11.1438 82.8872 11.4461C82.8288 11.7441 82.7236 12.0055 82.5717 12.2348C82.4198 12.4583 82.2095 12.6365 81.9408 12.7694C81.6764 12.8979 81.339 12.9622 80.9286 12.9622H79.4608V12.9636ZM82.1102 10.5406C82.1102 10.193 82.0781 9.90671 82.0153 9.67887C81.9569 9.44664 81.8736 9.26262 81.7655 9.12825C81.6574 8.99388 81.5289 8.9004 81.377 8.84636C81.231 8.79232 81.0688 8.76457 80.8921 8.76457H80.1283V12.229H80.8395C81.006 12.229 81.1652 12.2071 81.3171 12.1618C81.469 12.1165 81.6034 12.0333 81.7203 11.9091C81.8371 11.785 81.9306 11.6141 81.9992 11.3965C82.0722 11.173 82.1087 10.8882 82.1087 10.542L82.1102 10.5406Z" fill="#222432"/>
<path d="M84.7582 8.35415C84.7582 8.41404 84.7538 8.471 84.7436 8.52504C84.7333 8.5747 84.7114 8.61851 84.6778 8.65941C84.6486 8.69884 84.6048 8.73097 84.5464 8.7558C84.4924 8.77625 84.4193 8.78501 84.3258 8.78501C84.228 8.78501 84.1506 8.77333 84.0907 8.7485C84.0367 8.72367 83.9958 8.69154 83.9666 8.6521C83.9373 8.61267 83.9184 8.56739 83.9081 8.51773C83.8979 8.46369 83.8935 8.40819 83.8935 8.35415C83.8935 8.23585 83.9198 8.13653 83.9739 8.05621C84.0323 7.97149 84.1506 7.92914 84.3258 7.92914C84.5011 7.92914 84.6238 7.96857 84.6778 8.04744C84.7319 8.12193 84.7582 8.22271 84.7582 8.35269V8.35415ZM84.7144 12.8219C84.7144 12.8614 84.7041 12.8964 84.6851 12.9256C84.6705 12.9505 84.6369 12.9621 84.5829 12.9621H84.0615C83.9636 12.9621 83.914 12.9154 83.914 12.8205V9.45978C83.914 9.36631 83.9622 9.31811 84.0615 9.31811H84.5829C84.6369 9.31811 84.6705 9.33271 84.6851 9.36338C84.7041 9.38821 84.7144 9.42035 84.7144 9.45978V12.8205V12.8219Z" fill="#222432"/>
<path d="M87.1724 9.24652C87.4076 9.24652 87.6515 9.26405 87.9056 9.2991C88.1598 9.33415 88.3774 9.38089 88.5585 9.44077C88.6461 9.46998 88.7002 9.51818 88.7206 9.58244C88.7454 9.64233 88.7571 9.70659 88.7571 9.77524V12.9198C88.7571 13.133 88.7425 13.3316 88.7133 13.5142C88.6841 13.6982 88.6155 13.856 88.5074 13.9903C88.3993 14.1247 88.243 14.2284 88.0371 14.3029C87.837 14.3774 87.5595 14.4139 87.2075 14.4139C87.0162 14.4139 86.8088 14.4022 86.5839 14.3774C86.3633 14.3526 86.1778 14.3073 86.0259 14.243C85.9471 14.2138 85.9018 14.1788 85.8872 14.1393C85.8726 14.1043 85.8696 14.0678 85.8799 14.0283L85.9383 13.7537C85.9485 13.6939 85.9675 13.6603 85.9967 13.65C86.0303 13.6398 86.0829 13.6398 86.1515 13.65C86.318 13.6749 86.4918 13.6924 86.6729 13.7026C86.8584 13.7172 87.0235 13.7245 87.1651 13.7245C87.3214 13.7245 87.4485 13.7128 87.5463 13.688C87.6486 13.6632 87.7304 13.6237 87.7888 13.5697C87.8472 13.52 87.8867 13.4529 87.9056 13.3696C87.9305 13.2849 87.9422 13.1856 87.9422 13.0717V12.8263C87.7567 12.8964 87.5872 12.9431 87.4353 12.968C87.2878 12.9928 87.1564 13.0045 87.0395 13.0045C86.7416 13.0045 86.4962 12.9592 86.3063 12.8701C86.115 12.781 85.9646 12.6569 85.8507 12.4977C85.7426 12.3341 85.6666 12.1413 85.6228 11.9178C85.5834 11.69 85.5644 11.4373 85.5644 11.1598C85.5644 10.8677 85.5892 10.6048 85.6374 10.3711C85.6871 10.1331 85.7718 9.93297 85.8945 9.76939C86.0172 9.60143 86.1807 9.47144 86.3867 9.38235C86.597 9.29326 86.8584 9.24798 87.1724 9.24798V9.24652ZM86.4013 11.0897C86.4013 11.3176 86.413 11.5089 86.4378 11.6622C86.467 11.8156 86.5094 11.9398 86.5619 12.0347C86.6204 12.1238 86.6934 12.188 86.7825 12.2275C86.876 12.2669 86.9855 12.2874 87.1126 12.2874C87.2206 12.2874 87.3448 12.2771 87.4865 12.2581C87.634 12.2377 87.7844 12.2056 87.9422 12.1618V10.0425C87.8297 10.0221 87.707 10.0075 87.5756 9.99724C87.4485 9.98263 87.3258 9.97533 87.209 9.97533C87.0921 9.97533 86.9913 9.98701 86.8935 10.0118C86.7956 10.0367 86.7095 10.0892 86.6364 10.1681C86.5634 10.2426 86.505 10.3536 86.4597 10.5026C86.4203 10.6516 86.4013 10.8473 86.4013 11.0897Z" fill="#222432"/>
<path d="M90.4542 8.35415C90.4542 8.41404 90.4499 8.471 90.4396 8.52504C90.4294 8.5747 90.4075 8.61851 90.3739 8.65941C90.3447 8.69884 90.3009 8.73097 90.2425 8.7558C90.1884 8.77625 90.1154 8.78501 90.0219 8.78501C89.9241 8.78501 89.8452 8.77333 89.7868 8.7485C89.7327 8.72367 89.6918 8.69154 89.6626 8.6521C89.6334 8.61267 89.6144 8.56739 89.6042 8.51773C89.594 8.46369 89.5896 8.40819 89.5896 8.35415C89.5896 8.23585 89.6159 8.13653 89.6699 8.05621C89.7284 7.97149 89.8467 7.92914 90.0219 7.92914C90.1972 7.92914 90.3199 7.96857 90.3739 8.04744C90.428 8.12193 90.4542 8.22271 90.4542 8.35269V8.35415ZM90.4104 12.8219C90.4104 12.8614 90.4002 12.8964 90.3812 12.9256C90.3666 12.9505 90.333 12.9621 90.279 12.9621H89.7576C89.6597 12.9621 89.61 12.9154 89.61 12.8205V9.45978C89.61 9.36631 89.6582 9.31811 89.7576 9.31811H90.279C90.333 9.31811 90.3666 9.33271 90.3812 9.36338C90.4002 9.38821 90.4104 9.42035 90.4104 9.45978V12.8205V12.8219Z" fill="#222432"/>
<path d="M93.5593 12.6803C93.574 12.765 93.5418 12.8263 93.4644 12.8657C93.4001 12.895 93.3257 12.9198 93.2366 12.9402C93.1533 12.9607 93.0657 12.9753 92.9722 12.9855C92.8846 13.0001 92.7984 13.0103 92.7152 13.0147C92.6363 13.0191 92.5676 13.022 92.5092 13.022C92.2945 13.022 92.1251 12.9928 92.0024 12.9329C91.8856 12.8687 91.7965 12.7825 91.738 12.673C91.6796 12.5634 91.6431 12.4378 91.6285 12.2932C91.6139 12.1501 91.6066 11.9982 91.6066 11.8404V9.97388H91.24C91.186 9.97388 91.1495 9.96366 91.1305 9.94467C91.1115 9.91984 91.1013 9.88333 91.1013 9.83367V9.46999C91.1013 9.42034 91.1115 9.38382 91.1305 9.35899C91.1495 9.33416 91.186 9.32248 91.24 9.32248H91.6139V8.55716C91.6139 8.50312 91.6256 8.46515 91.6504 8.44616C91.6796 8.42133 91.7147 8.4038 91.7527 8.39358L92.2449 8.25921C92.3427 8.23438 92.3924 8.26359 92.3924 8.3483V9.32248H93.1781C93.2366 9.32248 93.2731 9.33416 93.2877 9.35899C93.3067 9.38382 93.3169 9.41888 93.3169 9.46269V9.83513C93.3169 9.88479 93.3067 9.9213 93.2877 9.94613C93.2731 9.96658 93.2366 9.97534 93.1781 9.97534H92.3924V11.8258C92.3924 11.9252 92.3997 12.0011 92.4143 12.0566C92.4289 12.1106 92.4537 12.153 92.4873 12.1837C92.5267 12.2085 92.5779 12.2231 92.6421 12.2289C92.7064 12.2333 92.7867 12.2363 92.8846 12.2363C92.9386 12.2363 93.0146 12.2333 93.1124 12.2289C93.2147 12.2246 93.3038 12.2173 93.3768 12.207C93.4162 12.2027 93.4454 12.207 93.4644 12.2216C93.4834 12.2363 93.498 12.2669 93.5082 12.3107L93.5593 12.6832V12.6803Z" fill="#222432"/>
<path d="M96.1956 11.3059H95.3003C95.1148 11.3059 94.9673 11.3512 94.8592 11.4403C94.7512 11.525 94.6971 11.6885 94.6971 11.931C94.6971 12.0946 94.7293 12.2085 94.7921 12.2728C94.8607 12.3326 94.9805 12.3619 95.1514 12.3619C95.2302 12.3619 95.3149 12.3516 95.4084 12.3326C95.5019 12.3122 95.5939 12.2859 95.6874 12.2509C95.7808 12.2158 95.8714 12.1793 95.959 12.1399C96.0467 12.0946 96.1255 12.0537 96.1942 12.0128V11.3059H96.1956ZM96.2395 12.54C96.054 12.6832 95.8436 12.8 95.6085 12.8891C95.3792 12.9782 95.1382 13.0235 94.8899 13.0235C94.6942 13.0235 94.5306 12.9986 94.3977 12.949C94.2707 12.8949 94.1669 12.8219 94.0895 12.7328C94.0165 12.6394 93.9625 12.5269 93.9274 12.3984C93.8982 12.2698 93.8836 12.1252 93.8836 11.9675C93.8792 11.5308 93.9917 11.2168 94.221 11.024C94.4503 10.8254 94.7979 10.7261 95.2624 10.7261H96.2015V10.5333C96.2015 10.4237 96.1898 10.3332 96.165 10.2587C96.146 10.1798 96.1065 10.1155 96.0481 10.0659C95.9897 10.0162 95.9108 9.98118 95.813 9.96219C95.7151 9.94174 95.591 9.93298 95.4391 9.93298C95.3807 9.93298 95.3076 9.9359 95.2185 9.94028C95.1353 9.94467 95.0477 9.95051 94.9542 9.95489C94.8666 9.95927 94.776 9.96657 94.6825 9.9768C94.5949 9.98702 94.5131 9.99432 94.4401 9.99871C94.367 10.0089 94.3159 10.0104 94.2853 10.006C94.2604 9.99579 94.2444 9.96365 94.2341 9.90961L94.1684 9.63503C94.1582 9.58537 94.164 9.54594 94.183 9.51673C94.202 9.48168 94.2546 9.44662 94.3378 9.41303C94.4167 9.38382 94.5087 9.35899 94.6168 9.33854C94.7249 9.3181 94.8344 9.30349 94.9469 9.29327C95.0593 9.27866 95.1689 9.26844 95.277 9.26406C95.3894 9.25383 95.4902 9.24945 95.5778 9.24945C95.8962 9.24945 96.1474 9.28158 96.3329 9.34585C96.5243 9.41011 96.6674 9.50212 96.7667 9.62043C96.8646 9.73435 96.9274 9.87602 96.958 10.044C96.9872 10.2119 97.0018 10.4004 97.0018 10.6092V12.0435C97.0018 12.1179 97.0048 12.1778 97.0092 12.2216C97.0194 12.2611 97.0311 12.2932 97.0457 12.318C97.0647 12.3385 97.0924 12.3531 97.126 12.3633C97.1596 12.3735 97.2063 12.3808 97.2648 12.3852C97.3188 12.3896 97.3553 12.3998 97.3743 12.4144C97.3933 12.429 97.4035 12.4568 97.4035 12.4962V12.8088C97.4035 12.8935 97.3451 12.9446 97.2268 12.9651C97.1684 12.9753 97.1099 12.9826 97.05 12.987C96.9916 12.9972 96.9347 13.0016 96.8806 13.0016C96.7097 13.0016 96.5695 12.9694 96.4629 12.9052C96.3607 12.8409 96.2891 12.7211 96.2497 12.5488L96.2351 12.5415L96.2395 12.54Z" fill="#222432"/>
<path d="M98.8231 12.042C98.8231 12.1559 98.848 12.2275 98.8962 12.2582C98.9502 12.283 99.0408 12.2947 99.1678 12.2947C99.2219 12.2991 99.2555 12.3064 99.2701 12.3166C99.289 12.3268 99.3037 12.3516 99.3139 12.3911L99.3431 12.7708C99.3475 12.8307 99.3168 12.8774 99.2481 12.9125C99.1795 12.9475 99.0992 12.9695 99.0057 12.9797C98.9122 12.9943 98.8348 13.0016 98.7706 13.0016C98.4916 13.0016 98.2959 12.9402 98.1834 12.8161C98.0753 12.6876 98.0213 12.4962 98.0213 12.2436V7.86488C98.0213 7.7714 98.068 7.72321 98.1601 7.72321H98.6815C98.7749 7.72321 98.8202 7.76994 98.8202 7.86488V12.0435L98.8231 12.042Z" fill="#222432"/>
<path d="M102.133 8.17595C102.133 8.07664 102.179 8.02698 102.271 8.02698H102.829C102.923 8.02698 102.968 8.07664 102.968 8.17595V12.8219C102.968 12.9154 102.921 12.9636 102.829 12.9636H102.271C102.178 12.9636 102.133 12.9169 102.133 12.8219V8.17595Z" fill="#222432"/>
<path d="M107.059 12.8219C107.059 12.8672 107.049 12.9008 107.03 12.9256C107.015 12.9505 106.982 12.9621 106.928 12.9621H106.399C106.311 12.9621 106.267 12.9169 106.267 12.8278V12.5897H106.253C106.253 12.5897 106.25 12.5824 106.246 12.5824C106.181 12.6277 106.107 12.6759 106.018 12.7314C105.93 12.781 105.834 12.8278 105.731 12.873C105.629 12.9183 105.521 12.9519 105.409 12.9767C105.301 13.006 105.194 13.022 105.086 13.022C104.846 13.022 104.648 12.9797 104.491 12.895C104.34 12.8059 104.217 12.6817 104.125 12.5225C104.037 12.3633 103.973 12.1735 103.934 11.95C103.9 11.7221 103.882 11.4666 103.882 11.1847C103.882 10.8823 103.901 10.6121 103.941 10.3741C103.985 10.1316 104.061 9.92569 104.169 9.75772C104.277 9.58976 104.423 9.4627 104.608 9.37798C104.8 9.28889 105.044 9.24361 105.342 9.24361C105.639 9.24361 105.948 9.30058 106.251 9.4145H106.259C106.259 9.4145 106.262 9.4072 106.266 9.4072V7.86779C106.266 7.81813 106.273 7.78162 106.288 7.75679C106.307 7.73196 106.346 7.72028 106.405 7.72028H106.926C106.985 7.72028 107.021 7.73488 107.036 7.76555C107.05 7.79038 107.058 7.82543 107.058 7.86925V12.8205L107.059 12.8219ZM106.259 10.0863C106.088 10.0367 105.933 10.0046 105.797 9.98995C105.666 9.9695 105.537 9.96074 105.416 9.96074C105.285 9.96074 105.172 9.98119 105.079 10.0206C104.985 10.0601 104.912 10.1272 104.858 10.2207C104.804 10.3142 104.765 10.4413 104.741 10.6005C104.716 10.7538 104.705 10.9481 104.705 11.1803C104.705 11.4125 104.715 11.6111 104.734 11.7601C104.759 11.9033 104.795 12.0157 104.843 12.0946C104.893 12.1691 104.952 12.2216 105.02 12.2509C105.089 12.2757 105.172 12.2874 105.27 12.2874C105.343 12.2874 105.426 12.2757 105.52 12.2509C105.613 12.226 105.705 12.1968 105.799 12.1618C105.892 12.1267 105.977 12.0917 106.056 12.0581C106.139 12.0186 106.208 11.9836 106.262 11.9544V10.0878L106.259 10.0863Z" fill="#222432"/>
<path d="M108.61 11.3643C108.615 11.5527 108.635 11.709 108.669 11.8331C108.708 11.9573 108.764 12.0566 108.838 12.1311C108.911 12.2012 109.002 12.2494 109.11 12.2801C109.218 12.3093 109.346 12.3253 109.498 12.3253C109.63 12.3253 109.787 12.3151 109.968 12.2961C110.15 12.2757 110.31 12.2596 110.453 12.2435C110.522 12.2333 110.569 12.2362 110.592 12.2508C110.621 12.2611 110.64 12.3005 110.651 12.3691L110.694 12.6145C110.705 12.6686 110.702 12.7138 110.687 12.7489C110.677 12.7839 110.639 12.8161 110.57 12.8453C110.497 12.8745 110.411 12.9022 110.313 12.9271C110.215 12.9475 110.113 12.9636 110.005 12.9796C109.897 12.9943 109.79 13.0074 109.682 13.0162C109.574 13.0264 109.476 13.0308 109.389 13.0308C109.037 13.0308 108.755 12.9782 108.544 12.8745C108.334 12.7708 108.172 12.632 108.06 12.4582C107.947 12.2844 107.871 12.0858 107.832 11.8638C107.798 11.636 107.781 11.4008 107.781 11.1569C107.781 10.9787 107.795 10.7772 107.824 10.5552C107.854 10.3317 107.919 10.1243 108.023 9.93005C108.131 9.73726 108.287 9.57514 108.493 9.44661C108.704 9.31225 108.987 9.24652 109.345 9.24652C109.672 9.24652 109.936 9.29618 110.138 9.3955C110.344 9.49481 110.503 9.62334 110.615 9.78254C110.728 9.93589 110.804 10.1141 110.843 10.3171C110.887 10.5157 110.912 10.7129 110.916 10.9115C110.921 11.0459 110.899 11.154 110.851 11.2387C110.802 11.3234 110.705 11.3658 110.557 11.3658H108.613L108.61 11.3643ZM109.343 9.91399C109.206 9.91399 109.094 9.93443 109.006 9.97387C108.918 10.0133 108.844 10.0732 108.785 10.1521C108.731 10.2265 108.692 10.32 108.669 10.4339C108.644 10.5435 108.628 10.6662 108.617 10.8064H110.071C110.071 10.6925 110.06 10.5829 110.042 10.4792C110.023 10.3697 109.986 10.2733 109.932 10.1886C109.884 10.1039 109.809 10.0381 109.711 9.98847C109.618 9.93882 109.497 9.91399 109.345 9.91399H109.343Z" fill="#222432"/>
<path d="M114.685 12.8219C114.685 12.8672 114.674 12.9008 114.655 12.9256C114.636 12.9505 114.598 12.9621 114.546 12.9621H114.017C113.924 12.9621 113.878 12.9154 113.878 12.8205L113.886 10.7319C113.886 10.5143 113.849 10.3376 113.776 10.2046C113.707 10.0703 113.569 10.0046 113.358 10.0046C113.285 10.0046 113.199 10.0162 113.101 10.0411C113.008 10.0659 112.913 10.098 112.815 10.1375C112.722 10.1725 112.634 10.209 112.551 10.2485C112.467 10.2835 112.402 10.3127 112.352 10.3376V12.8205C112.352 12.9139 112.305 12.9621 112.213 12.9621H111.692C111.598 12.9621 111.553 12.9154 111.553 12.8205V9.46707C111.553 9.36776 111.6 9.3181 111.692 9.3181H112.213C112.307 9.3181 112.352 9.36776 112.352 9.46707V9.69054C112.352 9.69054 112.359 9.69346 112.359 9.69784H112.374C112.443 9.64818 112.523 9.59852 112.616 9.54886C112.714 9.49482 112.817 9.44517 112.925 9.39989C113.033 9.35461 113.145 9.32102 113.262 9.29619C113.379 9.26698 113.494 9.25092 113.607 9.25092C113.856 9.25092 114.052 9.29035 114.194 9.36922C114.335 9.44371 114.444 9.54448 114.517 9.67447C114.59 9.803 114.636 9.95489 114.655 10.1272C114.674 10.2952 114.685 10.4748 114.685 10.6618V12.8175V12.8219Z" fill="#222432"/>
<path d="M117.696 12.6803C117.711 12.765 117.679 12.8263 117.601 12.8657C117.537 12.895 117.462 12.9198 117.373 12.9402C117.29 12.9607 117.203 12.9753 117.109 12.9855C117.021 13.0001 116.935 13.0103 116.852 13.0147C116.773 13.0191 116.704 13.022 116.646 13.022C116.431 13.022 116.262 12.9928 116.139 12.9329C116.022 12.8687 115.933 12.7825 115.875 12.673C115.816 12.5634 115.78 12.4378 115.765 12.2932C115.751 12.1501 115.743 11.9982 115.743 11.8404V9.97388H115.377C115.323 9.97388 115.286 9.96366 115.267 9.94467C115.248 9.91984 115.238 9.88333 115.238 9.83367V9.46999C115.238 9.42034 115.248 9.38382 115.267 9.35899C115.286 9.33416 115.324 9.32248 115.377 9.32248H115.751V8.55716C115.751 8.50312 115.762 8.46515 115.787 8.44616C115.816 8.42133 115.852 8.4038 115.889 8.39358L116.382 8.25921C116.48 8.23438 116.529 8.26359 116.529 8.3483V9.32248H117.315C117.373 9.32248 117.41 9.33416 117.425 9.35899C117.444 9.38382 117.454 9.41888 117.454 9.46269V9.83513C117.454 9.88479 117.444 9.9213 117.425 9.94613C117.41 9.96658 117.373 9.97534 117.315 9.97534H116.529V11.8258C116.529 11.9252 116.537 12.0011 116.551 12.0566C116.566 12.1121 116.591 12.153 116.624 12.1837C116.664 12.2085 116.715 12.2231 116.779 12.2289C116.843 12.2333 116.924 12.2363 117.021 12.2363C117.075 12.2363 117.151 12.2333 117.249 12.2289C117.351 12.2246 117.441 12.2173 117.514 12.207C117.553 12.2027 117.582 12.207 117.601 12.2216C117.62 12.2363 117.635 12.2669 117.645 12.3107L117.696 12.6832V12.6803Z" fill="#222432"/>
<path d="M119.056 8.35415C119.056 8.41404 119.052 8.471 119.041 8.52504C119.031 8.5747 119.009 8.61851 118.976 8.65941C118.946 8.69884 118.903 8.73097 118.844 8.7558C118.79 8.77625 118.717 8.78501 118.624 8.78501C118.526 8.78501 118.447 8.77333 118.388 8.7485C118.334 8.72367 118.294 8.69154 118.264 8.6521C118.235 8.61267 118.216 8.56739 118.206 8.51773C118.196 8.46369 118.191 8.40819 118.191 8.35415C118.191 8.23585 118.218 8.13653 118.272 8.05621C118.33 7.97149 118.448 7.92914 118.624 7.92914C118.799 7.92914 118.922 7.96857 118.976 8.04744C119.03 8.12193 119.056 8.22271 119.056 8.35269V8.35415ZM119.012 12.8219C119.012 12.8614 119.002 12.8964 118.983 12.9256C118.968 12.9505 118.935 12.9621 118.881 12.9621H118.359C118.261 12.9621 118.212 12.9154 118.212 12.8205V9.45978C118.212 9.36631 118.26 9.31811 118.359 9.31811H118.881C118.935 9.31811 118.968 9.33271 118.983 9.36338C119.002 9.38821 119.012 9.42035 119.012 9.45978V12.8205V12.8219Z" fill="#222432"/>
<path d="M122.16 12.6803C122.174 12.765 122.142 12.8263 122.065 12.8657C122 12.895 121.926 12.9198 121.837 12.9402C121.754 12.9607 121.666 12.9753 121.572 12.9855C121.485 13.0001 121.399 13.0103 121.315 13.0147C121.236 13.0191 121.168 13.022 121.109 13.022C120.895 13.022 120.725 12.9928 120.603 12.9329C120.486 12.8687 120.397 12.7825 120.338 12.673C120.28 12.5634 120.243 12.4378 120.229 12.2932C120.214 12.1501 120.207 11.9982 120.207 11.8404V9.97388H119.84C119.786 9.97388 119.75 9.96366 119.731 9.94467C119.712 9.91984 119.701 9.88333 119.701 9.83367V9.46999C119.701 9.42034 119.712 9.38382 119.731 9.35899C119.75 9.33416 119.786 9.32248 119.84 9.32248H120.214V8.55716C120.214 8.50312 120.226 8.46515 120.251 8.44616C120.28 8.42133 120.315 8.4038 120.353 8.39358L120.845 8.25921C120.943 8.23438 120.993 8.26359 120.993 8.3483V9.32248H121.778C121.837 9.32248 121.873 9.33416 121.888 9.35899C121.907 9.38382 121.917 9.41888 121.917 9.46269V9.83513C121.917 9.88479 121.907 9.9213 121.888 9.94613C121.873 9.96658 121.837 9.97534 121.778 9.97534H120.993V11.8258C120.993 11.9252 121 12.0011 121.014 12.0566C121.029 12.1106 121.054 12.153 121.088 12.1837C121.127 12.2085 121.178 12.2231 121.242 12.2289C121.307 12.2333 121.387 12.2363 121.485 12.2363C121.539 12.2363 121.615 12.2333 121.713 12.2289C121.815 12.2246 121.904 12.2173 121.977 12.207C122.016 12.2027 122.046 12.207 122.065 12.2216C122.084 12.2363 122.098 12.2669 122.108 12.3107L122.16 12.6832V12.6803Z" fill="#222432"/>
<path d="M124.004 11.9223C124.058 11.7689 124.106 11.6243 124.152 11.4914C124.2 11.357 124.242 11.2416 124.276 11.1423C124.315 11.024 124.352 10.9145 124.385 10.8152L124.841 9.44665C124.856 9.40137 124.875 9.36924 124.9 9.35025C124.924 9.3298 124.964 9.32104 125.016 9.32104H125.56C125.618 9.32104 125.65 9.33565 125.655 9.36632C125.659 9.39553 125.655 9.43058 125.64 9.47002L123.93 14.1978C123.911 14.2474 123.889 14.2825 123.864 14.3015C123.839 14.3219 123.795 14.3307 123.733 14.3307H123.233C123.175 14.3307 123.14 14.3161 123.131 14.2854C123.126 14.2562 123.131 14.2211 123.145 14.1817L123.608 12.9256L122.325 9.46855C122.31 9.42912 122.306 9.39407 122.31 9.36486C122.32 9.33565 122.351 9.31958 122.405 9.31958H122.97C123.02 9.31958 123.053 9.32396 123.072 9.33419C123.091 9.34441 123.112 9.37654 123.131 9.43058L123.608 10.8137L123.975 11.9208H124.004V11.9223Z" fill="#222432"/>
<path d="M68.1475 8.18768C68.1475 8.08982 68.1971 8.04016 68.2979 8.04016H71.0583C71.1533 8.04016 71.2015 8.0869 71.2015 8.18037V8.63606C71.2015 8.72369 71.1518 8.76897 71.051 8.76897H69.0034V10.0323H70.8188C70.9181 10.0323 70.9692 10.0761 70.9692 10.1652V10.6209C70.9692 10.7086 70.9196 10.7538 70.8188 10.7538H69.0034V12.2012H71.1036C71.1942 12.2012 71.238 12.248 71.238 12.3414V12.7898C71.238 12.8775 71.1898 12.9227 71.0948 12.9227H68.2965C68.1971 12.9227 68.146 12.8789 68.146 12.7898V8.18914L68.1475 8.18768Z" fill="#222432"/>
<path d="M73.9341 12.2436C74.2642 12.2436 74.514 12.1559 74.6849 11.9792C74.8601 11.7981 74.9478 11.5162 74.9478 11.1336V8.18621C74.9478 8.08835 74.9974 8.03869 75.0982 8.03869H75.6605C75.716 8.03869 75.751 8.0533 75.7657 8.08251C75.7861 8.10734 75.7963 8.14093 75.7963 8.18475L75.789 11.1321C75.789 11.2796 75.7788 11.4257 75.7584 11.5732C75.7437 11.7149 75.7087 11.858 75.6532 11.9997C75.5787 12.1764 75.4808 12.3254 75.3611 12.4481C75.2457 12.5707 75.1143 12.6715 74.9638 12.7489C74.8134 12.8278 74.6513 12.8833 74.476 12.9183C74.3007 12.9578 74.1211 12.9768 73.9356 12.9768C73.1455 12.9768 72.6051 12.7051 72.3159 12.1603C72.2355 12.0128 72.1786 11.8536 72.1435 11.6827C72.1085 11.506 72.0909 11.322 72.0909 11.1321V8.18475C72.0909 8.08689 72.1391 8.03723 72.2341 8.03723H72.7964C72.8913 8.03723 72.9395 8.08689 72.9395 8.18475V11.1321C72.9395 11.4943 73.0213 11.7718 73.1863 11.9632C73.3558 12.1486 73.607 12.2421 73.9371 12.2421L73.9341 12.2436Z" fill="#222432"/>
<path d="M76.5675 24.2024L76.1279 25.6922L74.5987 30.8303C74.5563 30.9837 74.4935 31.0962 74.4103 31.1663C74.3402 31.2364 74.2073 31.2714 74.013 31.2714H72.5057C72.31 31.2714 72.1713 31.2364 72.0866 31.1663C72.0033 31.0962 71.9463 30.991 71.9186 30.8522L68.1709 17.7644C68.1008 17.4854 68.1913 17.3452 68.4425 17.3452H70.0973C70.2653 17.3452 70.3836 17.3803 70.4537 17.4504C70.5369 17.5059 70.5997 17.611 70.6421 17.7644C70.9912 19.0365 71.3125 20.1976 71.606 21.2463C71.7316 21.6932 71.85 22.1416 71.9624 22.5885C72.088 23.0223 72.199 23.421 72.2969 23.7832C72.4079 24.1469 72.4999 24.4609 72.5685 24.7268C72.6386 24.9926 72.6868 25.1678 72.7146 25.2511L73.385 27.8727H73.4478L74.0554 25.7126C74.07 25.6571 74.1109 25.5023 74.181 25.2511C74.2511 24.9853 74.3343 24.6771 74.4322 24.328C74.5432 23.9644 74.6556 23.5802 74.7666 23.1742C74.8923 22.7682 75.0032 22.3841 75.1011 22.0204C75.2121 21.6567 75.3041 21.3485 75.3728 21.0973C75.4429 20.8315 75.4911 20.6635 75.5188 20.5934L74.66 17.7615C74.6323 17.649 74.6323 17.5511 74.66 17.4679C74.7024 17.3846 74.7783 17.3423 74.8908 17.3423H76.4609C76.7822 17.3423 76.9779 17.4825 77.0465 17.7615C77.4234 19.0613 77.7578 20.2502 78.0514 21.3266C78.177 21.7882 78.3026 22.2424 78.4282 22.6893C78.5538 23.1362 78.6648 23.5496 78.7627 23.9264C78.8737 24.3032 78.9657 24.6318 79.0343 24.9122C79.1044 25.1781 79.1526 25.3533 79.1804 25.4366L79.8084 27.8698H79.8917L80.4773 25.3738C80.5051 25.2905 80.5548 25.1153 80.6234 24.8494C80.6935 24.5705 80.7767 24.2419 80.8746 23.8636C80.9725 23.4853 81.0776 23.0734 81.1886 22.6265C81.3142 22.1796 81.4398 21.7312 81.5654 21.2843C81.8444 20.221 82.1584 19.0467 82.5075 17.7615C82.5776 17.4825 82.7733 17.3423 83.0932 17.3423H84.6851C84.9364 17.3423 85.0138 17.4956 84.9159 17.8038L81.2938 30.8289C81.2514 30.9822 81.1828 31.0947 81.0849 31.1648C81.0017 31.2349 80.8615 31.27 80.6657 31.27H79.2213C78.9978 31.27 78.8445 31.2349 78.7612 31.1648C78.6911 31.0815 78.6356 30.9691 78.5932 30.8289L77.0641 25.6484L76.6449 24.1805L76.5616 24.201L76.5675 24.2024Z" fill="#222432"/>
<path d="M92.2624 26.5933H89.7079C89.1777 26.5933 88.7586 26.719 88.4519 26.9716C88.1451 27.2097 87.9918 27.6712 87.9918 28.3562C87.9918 28.8177 88.0823 29.1391 88.2635 29.3216C88.4592 29.4896 88.8009 29.5728 89.2887 29.5728C89.5122 29.5728 89.7561 29.5451 90.0219 29.4896C90.2878 29.4341 90.5521 29.3567 90.8179 29.2588C91.0837 29.161 91.3408 29.0558 91.592 28.9448C91.8432 28.8192 92.0667 28.6994 92.2624 28.5884V26.5963V26.5933ZM92.388 30.0753C91.8578 30.4813 91.2575 30.8099 90.5872 31.0611C89.9314 31.3123 89.2464 31.4394 88.5351 31.4394C87.9772 31.4394 87.5098 31.3693 87.1315 31.2291C86.7693 31.0757 86.4758 30.8727 86.2523 30.6215C86.0434 30.3557 85.8901 30.0417 85.7922 29.678C85.709 29.3143 85.6666 28.9098 85.6666 28.4614C85.652 27.2316 85.9733 26.3436 86.6306 25.7974C87.2864 25.238 88.2781 24.959 89.6042 24.959H92.2843V24.4142C92.2843 24.1061 92.2493 23.8475 92.1791 23.6387C92.1236 23.4152 92.0112 23.2327 91.8447 23.0939C91.6767 22.9537 91.4533 22.8558 91.1743 22.8003C90.8953 22.7448 90.539 22.7171 90.1066 22.7171C89.9387 22.7171 89.7298 22.7244 89.4786 22.7375C89.242 22.7521 88.9908 22.7653 88.725 22.7799C88.4738 22.7945 88.2153 22.8149 87.9509 22.8427C87.6997 22.8704 87.4689 22.8909 87.2601 22.9055C87.0512 22.9332 86.9037 22.9405 86.8204 22.9259C86.7503 22.8982 86.7021 22.8076 86.6744 22.6528L86.486 21.8773C86.4582 21.7371 86.4714 21.6261 86.5283 21.5414C86.5838 21.4435 86.7313 21.3456 86.968 21.2478C87.1914 21.1645 87.4558 21.0944 87.7639 21.0375C88.0707 20.982 88.3847 20.9396 88.706 20.9119C89.0273 20.8695 89.3413 20.8418 89.648 20.8286C89.9694 20.8009 90.2556 20.7863 90.5068 20.7863C91.4138 20.7863 92.1324 20.8768 92.664 21.0594C93.2088 21.2405 93.6207 21.5005 93.8997 21.8349C94.1786 22.1562 94.3597 22.555 94.4444 23.0311C94.5277 23.5058 94.57 24.0374 94.57 24.6245V28.6717C94.57 28.882 94.5773 29.05 94.5905 29.1756C94.6182 29.288 94.6533 29.3786 94.6956 29.4487C94.7511 29.5042 94.8286 29.5466 94.9264 29.5743C95.0243 29.6021 95.1572 29.6225 95.3237 29.6371C95.477 29.6517 95.5822 29.6795 95.6377 29.7204C95.6932 29.7627 95.7209 29.8387 95.7209 29.9511V30.8318C95.7209 31.0699 95.553 31.2159 95.2185 31.2729C95.0506 31.3007 94.8841 31.3211 94.7161 31.3357C94.5481 31.3635 94.3875 31.3781 94.2341 31.3781C93.7463 31.3781 93.3476 31.2875 93.0409 31.1049C92.7473 30.9238 92.5457 30.5879 92.4333 30.0986L92.3909 30.0782L92.388 30.0753Z" fill="#222432"/>
<path d="M99.7593 28.6702C99.7593 28.9916 99.8294 29.1946 99.9682 29.2778C100.122 29.3479 100.38 29.383 100.742 29.383C100.896 29.3976 100.993 29.418 101.036 29.4458C101.091 29.4735 101.134 29.5436 101.161 29.6561L101.245 30.7252C101.259 30.8932 101.167 31.0261 100.973 31.1239C100.777 31.2218 100.547 31.2846 100.282 31.3123C100.016 31.3547 99.7929 31.3751 99.6118 31.3751C98.8158 31.3751 98.2579 31.1999 97.9366 30.8508C97.6299 30.4871 97.4765 29.9482 97.4765 29.2355V16.8822C97.4765 16.6164 97.6094 16.4835 97.8738 16.4835H99.3606C99.6264 16.4835 99.7579 16.6164 99.7579 16.8822V28.6688L99.7593 28.6702Z" fill="#222432"/>
<path d="M105.301 28.6702C105.301 28.9916 105.371 29.1946 105.509 29.2778C105.663 29.3479 105.921 29.383 106.284 29.383C106.437 29.3976 106.535 29.418 106.577 29.4458C106.633 29.4735 106.675 29.5436 106.703 29.6561L106.786 30.7252C106.801 30.8932 106.709 31.0261 106.514 31.1239C106.319 31.2218 106.088 31.2846 105.823 31.3123C105.558 31.3547 105.334 31.3751 105.153 31.3751C104.357 31.3751 103.799 31.1999 103.478 30.8508C103.171 30.4871 103.018 29.9482 103.018 29.2355V16.8822C103.018 16.6164 103.151 16.4835 103.415 16.4835H104.902C105.168 16.4835 105.299 16.6164 105.299 16.8822V28.6688L105.301 28.6702Z" fill="#222432"/>
<path d="M110.465 26.7613C110.48 27.2929 110.535 27.7326 110.633 28.0831C110.744 28.4322 110.905 28.7126 111.115 28.9214C111.324 29.1172 111.582 29.2574 111.889 29.3406C112.196 29.4239 112.567 29.4662 112.999 29.4662C113.376 29.4662 113.823 29.4385 114.34 29.383C114.857 29.3275 115.317 29.2778 115.722 29.2355C115.917 29.2077 116.05 29.215 116.119 29.2559C116.202 29.2837 116.259 29.3961 116.287 29.5918L116.412 30.2841C116.44 30.4375 116.433 30.5631 116.392 30.6624C116.364 30.7603 116.252 30.8508 116.057 30.9355C115.849 31.0188 115.603 31.0962 115.324 31.1663C115.045 31.2218 114.752 31.2714 114.445 31.3138C114.138 31.3562 113.83 31.3912 113.523 31.419C113.217 31.4467 112.938 31.4613 112.685 31.4613C111.68 31.4613 110.877 31.3138 110.277 31.0202C109.676 30.7267 109.216 30.3352 108.895 29.846C108.574 29.3567 108.358 28.7973 108.247 28.1678C108.149 27.5252 108.1 26.8606 108.1 26.1756C108.1 25.6717 108.143 25.1065 108.226 24.477C108.309 23.8475 108.498 23.2604 108.791 22.7156C109.098 22.1708 109.545 21.7152 110.132 21.3529C110.732 20.9761 111.541 20.7863 112.561 20.7863C113.496 20.7863 114.251 20.9265 114.822 21.2054C115.408 21.4844 115.862 21.8481 116.183 22.2965C116.504 22.7302 116.721 23.2327 116.832 23.8066C116.957 24.366 117.027 24.9254 117.04 25.4848C117.055 25.8631 116.992 26.1698 116.852 26.4079C116.712 26.6459 116.433 26.7642 116.014 26.7642H110.465V26.7613ZM112.559 22.6718C112.168 22.6718 111.848 22.7273 111.597 22.8398C111.346 22.9522 111.137 23.1187 110.969 23.3437C110.816 23.554 110.703 23.8198 110.634 24.1411C110.564 24.4493 110.516 24.7983 110.488 25.1898H114.635C114.635 24.8685 114.607 24.5603 114.552 24.2667C114.496 23.9585 114.391 23.6869 114.238 23.4488C114.097 23.2107 113.889 23.0223 113.61 22.8821C113.344 22.7419 112.995 22.6718 112.562 22.6718H112.559Z" fill="#222432"/>
<path d="M125.329 30.474C125.371 30.712 125.281 30.8859 125.057 30.9983C124.876 31.0816 124.66 31.1517 124.409 31.2086C124.171 31.2641 123.92 31.3065 123.655 31.3342C123.404 31.3766 123.16 31.4043 122.922 31.4175C122.699 31.4321 122.503 31.4379 122.336 31.4379C121.721 31.4379 121.241 31.3547 120.892 31.1867C120.557 31.0042 120.306 30.7602 120.138 30.4521C119.97 30.1439 119.867 29.7875 119.824 29.383C119.782 28.9769 119.761 28.5505 119.761 28.1035V22.8398H118.714C118.561 22.8398 118.456 22.812 118.4 22.7565C118.345 22.6864 118.317 22.5812 118.317 22.4425V21.4143C118.317 21.2741 118.345 21.1689 118.4 21.1003C118.456 21.0302 118.561 20.9951 118.714 20.9951H119.782V18.835C119.782 18.6816 119.817 18.5765 119.887 18.521C119.97 18.4508 120.068 18.4027 120.181 18.3734L121.584 17.9966C121.863 17.9265 122.003 18.0112 122.003 18.2478V20.9951H124.244C124.412 20.9951 124.515 21.0302 124.558 21.1003C124.613 21.1704 124.641 21.2682 124.641 21.3938V22.4425C124.641 22.5827 124.613 22.6879 124.558 22.7565C124.515 22.812 124.412 22.8398 124.244 22.8398H122.003V28.0626C122.003 28.3416 122.024 28.5592 122.066 28.7126C122.108 28.8659 122.177 28.9857 122.275 29.0689C122.386 29.1391 122.533 29.1814 122.715 29.1946C122.896 29.2092 123.126 29.215 123.405 29.215C123.559 29.215 123.775 29.2077 124.054 29.1946C124.347 29.1799 124.599 29.1595 124.808 29.1317C124.919 29.1171 125.003 29.1318 125.059 29.1741C125.114 29.2165 125.157 29.2997 125.184 29.4253L125.33 30.474H125.329Z" fill="#222432"/>
</svg>
