<?xml version="1.0" encoding="UTF-8"?>
<svg id="Layer_1" xmlns="http://www.w3.org/2000/svg" version="1.1" viewBox="0 0 258 72">
  <!-- Generator: Adobe Illustrator 29.4.0, SVG Export Plug-In . SVG Version: 2.1.0 Build 152)  -->
  <defs>
    <style>
      .st0 {
        fill: #58595b;
      }

      .st1 {
        fill: #6d6e70;
      }

      .st2 {
        fill: #039;
      }

      .st3 {
        fill: #ffed00;
      }
    </style>
  </defs>
  <path class="st2" d="M87.1,27.8H28.3v38.9h58.9V27.8Z"/>
  <path class="st3" d="M58.2,33.6h2.1l-1.7,1.3.6,2-1.6-1.2-1.6,1.2.6-2-1.7-1.3h2l.6-2,.6,2Z"/>
  <path class="st3" d="M58.3,59.6h2.1l-1.6,1.2.6,1.9-1.6-1.2-1.6,1.2.6-1.9-1.7-1.2h2l.6-1.9.6,1.9Z"/>
  <path class="st3" d="M64.8,57.9h2.1l-1.7,1.2.6,1.9-1.6-1.2-1.6,1.2.6-1.9-1.7-1.2h2l.6-1.9.6,1.9Z"/>
  <path class="st3" d="M64.8,35.4h2.1l-1.7,1.2.6,1.9-1.6-1.2-1.6,1.2.6-1.9-1.7-1.2h2l.6-1.9.6,1.9Z"/>
  <path class="st3" d="M69.6,40.1h2l-1.6,1.2.6,1.9-1.6-1.2-1.6,1.2.6-1.9-1.7-1.2h2l.6-1.9.6,1.9Z"/>
  <path class="st3" d="M69.6,53.2h2l-1.6,1.2.6,1.9-1.6-1.2-1.6,1.2.6-1.9-1.7-1.2h2l.6-1.9.6,1.9Z"/>
  <path class="st3" d="M71.4,46.6h2.1l-1.7,1.2.6,1.9-1.6-1.2-1.6,1.2.6-1.9-1.7-1.2h2l.6-1.9.6,1.9Z"/>
  <path class="st3" d="M51.6,35.4h2l-1.6,1.2.6,1.9-1.6-1.2-1.6,1.2.6-1.9-1.7-1.2h2l.6-1.9.6,1.9Z"/>
  <path class="st3" d="M46.9,40.2h2.1l-1.7,1.2.6,1.9-1.6-1.2-1.6,1.2.6-1.9-1.7-1.2h2l.6-1.9.6,1.9Z"/>
  <path class="st3" d="M45.2,46.6h2.1l-1.6,1.2.6,1.9-1.6-1.2-1.6,1.2.6-1.9-1.7-1.2h2l.6-1.9.6,1.9Z"/>
  <path class="st3" d="M46.9,53.2h2.1l-1.7,1.2.6,1.9-1.6-1.2-1.6,1.2.6-1.9-1.7-1.2h2l.6-1.9.6,1.9Z"/>
  <path class="st3" d="M51.7,57.9h2l-1.6,1.2.6,1.9-1.6-1.2-1.6,1.2.6-1.9-1.7-1.2h2l.6-1.9.6,1.9Z"/>
  <path class="st1" d="M96.1,0s12.1,19,14.3,22.5c2.2,3.5,4.7,6.3,13.7,8.1,8.9,1.9,12.8,2.8,12.8,2.8v.7s-5.7-1.2-13-2.8c-7.3-1.6-10.3-2.2-13.6-6.8-2.8-3.8-14.2-20.9-14.2-20.9V0h0Z"/>
  <path class="st1" d="M96.1,21.8s11,11.4,14.2,14.7c3.4,3.5,7.7,4.8,13.7,5.8,5.7,1,12.9,2.2,12.9,2.2v.6s-6.8-1.1-12.9-2.1c-6-1-10.3-1.6-13.7-4.7-3.1-2.8-14.2-13.1-14.2-13.1v-3.4h0Z"/>
  <path class="st1" d="M96.1,26.9s10.5,9.6,14.2,12.9c3.4,3,6.2,4,13.7,5.3,7.5,1.3,12.9,2.1,12.9,2.1v.7s-6.8-1.1-12.9-2.1c-6.1-1-10-1.3-13.7-4.3-4.2-3.4-14.2-11.5-14.2-11.5v-3.1h0Z"/>
  <path class="st1" d="M96.1,32.4s12,9.4,14.2,11c2.2,1.6,5.2,3.6,13.8,4.8,8.5,1.2,12.9,1.8,12.9,1.8v.7s-7.7-1.1-12.9-1.7c-5.2-.6-9.1-.9-13.7-4-4.5-3-14.2-9.7-14.2-9.7v-2.9Z"/>
  <path class="st1" d="M96.1,37.6s12,7.9,14.3,9.2c2.3,1.2,4.9,3.3,13.7,4.4,8.8,1.1,12.9,1.6,12.9,1.6v.7s-7.2-.8-12.9-1.4c-5.7-.6-9.5-1.4-13.7-3.7-4.2-2.3-14.2-8-14.2-8v-2.7Z"/>
  <path class="st1" d="M96.1,42.9s10.6,5.7,14.2,7.5c4,2,7.5,2.9,13.7,3.7,6.2.7,12.9,1.4,12.9,1.4v.6s-6.2-.7-12.9-1.3c-6.6-.6-9-.9-13.7-3-4.3-1.9-14.2-6.4-14.2-6.4v-2.5h0Z"/>
  <path class="st1" d="M96.1,48.3s8.4,3.5,14.3,5.9c5.8,2.3,10.2,2.5,13.7,2.9,1.6.2,12.8,1.3,12.8,1.3v.6s-6.7-.5-12.9-1.1c-6.1-.5-8.8-.8-13.7-2.4-5-1.7-14.2-4.8-14.2-4.8v-2.4h0Z"/>
  <path class="st1" d="M96.1,53.7s8.5,2.6,14.2,4.1c5.8,1.5,11.1,2.1,13.7,2.3,2.7.2,12.9,1,12.9,1v.6s-5.8-.4-12.9-.9c-5.7-.4-10.4-.8-13.7-1.6-3.7-.8-14.2-3.3-14.2-3.3v-2.2Z"/>
  <path class="st1" d="M96.1,59.1s6.9,1.2,14.2,2.4c5.5.9,12.9,1.5,13.7,1.5.8,0,12.9.9,12.9.9v.6s-7.8-.4-12.9-.7c-5.4-.3-10.7-.6-13.7-.9-6.8-.7-14.2-1.6-14.2-1.6v-2.1Z"/>
  <path class="st1" d="M96.1,64.6s10.9.4,14.2.5c3.3,0,26.6,1,26.6,1v.6h-40.8v-2.1Z"/>
  <path class="st1" d="M124,33.6c-9.9-2.1-12.1-5.7-13.8-7.9-1.7-2.2-14.2-20.3-14.2-20.3v3.3c.5.6,11.2,15.2,14.2,19.1,3.4,4.3,8.7,5.3,13.7,6.4,5,1.1,12.9,2.6,12.9,2.6v-.6s-10.4-2-12.9-2.6Z"/>
  <path class="st1" d="M124,36.5c-8.1-1.6-11.4-4.1-13.8-7.2-2.4-3.1-14.2-18.8-14.2-18.8v3.9c.5.6,11.3,13.6,14.2,16.8,3.4,3.8,8.1,4.8,13.8,5.9,5.7,1,12.9,2.4,12.9,2.4v-.6s-8.2-1.5-12.9-2.4h0Z"/>
  <path class="st1" d="M124,39.4c-8.4-1.6-10.2-2.9-13.7-6.8-2.2-2.4-13.7-15.8-14.2-16.4v3.6s10.7,11.3,14.2,14.6c4.5,4.4,8.8,4.7,13.8,5.6,5,.9,12.9,2.3,12.9,2.3v-.6s-9.5-1.7-12.9-2.3h0Z"/>
  <path class="st1" d="M.3,28s27.9-2.9,35.7-4c12.4-1.7,22.5-3.5,31.8-17.7,0,0,0-.8,0-1.2-5.7,8.6-13.6,14.5-24.5,16.2C32.7,23,.3,25.4.3,25.4v2.6h0Z"/>
  <path class="st1" d="M.3,24.5s25.9-3.2,34.4-4.4c13.5-1.9,23-3.5,33.2-19,0,0,0-.7,0-1.1-6.3,9.4-14,15.5-25.9,17.4C30.4,19.2.3,21.8.3,21.8v2.6H.3Z"/>
  <path class="st1" d="M26.7,64.6H.3v2.1h26.4v-2.1Z"/>
  <path class="st1" d="M67.9,22.7s0-1.2,0-1.5c-1.2,1.9-2.9,3.6-4.8,5.1h1.8c1-1.1,2-2.2,2.9-3.6h0Z"/>
  <path class="st1" d="M67.9,17.2s0-1.1,0-1.4c-3,4.5-7.4,8.1-12.6,10.5h3c3.5-2,6.8-4.9,9.6-9.1h0Z"/>
  <path class="st1" d="M67.9,11.7s0-.9,0-1.3c-5.2,7.8-13.3,13.2-23.2,14.8-2.3.4-6.2.8-10.6,1.2h12.1c8-1.8,15.5-5.2,21.7-14.7h0Z"/>
  <path class="st1" d="M26.7,61.1c-13.5,0-26.4.1-26.4.1v2.2s13.5,0,26.4-.2v-2.1Z"/>
  <path class="st1" d="M26.7,57.4c-13.4.1-26.4.3-26.4.3v2.2s13.7-.2,26.4-.4v-2.1Z"/>
  <path class="st1" d="M26.7,53.7c-13.3.2-26.4.4-26.4.4v2.2s13.8-.3,26.4-.6v-2.1Z"/>
  <path class="st1" d="M26.7,50c-13.2.3-26.4.6-26.4.6v2.3s14-.4,26.4-.8v-2.1h0Z"/>
  <path class="st1" d="M26.7,46.3c-13.1.4-26.4.7-26.4.7v2.3s14.2-.5,26.4-1v-2.1h0Z"/>
  <path class="st1" d="M26.7,42.5c-13,.5-26.4.9-26.4.9v2.4s14.3-.6,26.4-1.2v-2.1h0Z"/>
  <path class="st1" d="M26.7,38.7c-12.9.6-26.4,1.1-26.4,1.1v2.4s14.5-.8,26.4-1.5v-2Z"/>
  <path class="st1" d="M26.7,34.9c-12.8.8-26.4,1.4-26.4,1.4v2.5s14.7-.9,26.4-1.8v-2Z"/>
  <path class="st1" d="M26.7,31.1c-12.7.9-26.4,1.6-26.4,1.6v2.5s14.9-1.1,26.4-2.1v-2h0Z"/>
  <path class="st1" d="M26.7,27.2c-12.6,1-26.4,1.9-26.4,1.9v2.5s15.1-1.4,26.4-2.5v-2Z"/>
  <path class="st0" d="M146,33.7c0-.3.1-.4.4-.4h7.2c.2,0,.4.1.4.4v1.2c0,.2,0,.3-.4.3h-5.3v3.3h4.7c.3,0,.4.1.4.3v1.2c0,.2,0,.3-.4.3h-4.7v3.8h5.4c.2,0,.3.1.3.4v1.2c0,.3,0,.3-.4.3h-7.3c-.3,0-.4-.1-.4-.3v-12.2h0Z"/>
  <path class="st0" d="M163.9,46.2h-1.4c-.3,0-.4-.1-.4-.4v-.6h0c-.8.5-2.1,1.1-3.3,1.1-2.6,0-2.9-1.6-2.9-3.6v-5.7c0-.2,0-.4.4-.4h1.4c.3,0,.3.1.3.4v5.5c0,1.2.2,1.9,1.4,1.9s2.1-.6,2.6-.9v-6.5c0-.2,0-.4.4-.4h1.4c.3,0,.4.1.4.4v8.8c0,.3,0,.4-.4.4h0Z"/>
  <path class="st0" d="M168.8,45.8c0,.2,0,.4-.4.4h-1.4c-.3,0-.4-.1-.4-.4v-8.8c0-.3,0-.4.4-.4h1.4c.3,0,.4.2.4.4v.9h0c.6-.5,2-1.2,2.9-1.3.3,0,.4,0,.5.3v1.3c.2.3.2.4-.2.5-1.1.2-2.5.6-3.2.9v6.3Z"/>
  <path class="st0" d="M177.4,46.4c-3.9,0-4.2-2.9-4.2-5.1s.4-4.8,4.2-4.8,4.3,2.5,4.3,4.8-.3,5.1-4.3,5.1ZM177.4,38.3c-1.7,0-2,1-2,3.1s.4,3.1,2,3.1,2.1-1,2.1-3.1-.3-3.1-2.1-3.1Z"/>
  <path class="st0" d="M188.1,46.4c-.6,0-1.5-.1-2.4-.4h0v3.4c0,.2,0,.4-.4.4h-1.4c-.3,0-.4-.1-.4-.4v-12.3c0-.3,0-.4.4-.4h1.4c.3,0,.3.2.3.4v.6h0c.7-.4,1.9-1.1,3.1-1.1,2.5,0,3.2,1.9,3.2,4.9s-.8,5-3.9,5h0ZM188.3,38.5c-.8,0-2,.6-2.6.9v4.9c.9.3,1.6.3,2.2.3,1.4,0,1.9-.7,1.9-3.2s-.5-2.9-1.5-2.9h0Z"/>
  <path class="st0" d="M195.7,42c0,2,.8,2.5,2.4,2.5s1.8-.1,2.5-.2c.3,0,.5,0,.5.3v.6c.2.3.1.4-.2.6-.8.3-2.2.5-3.1.5-3.7,0-4.3-2.4-4.3-4.9s.3-5,4.1-5,4.1,2.3,4.2,4.4c0,.7-.2,1.2-1,1.2h-5.2ZM195.7,40.6h3.9c0-1.2-.3-2.3-1.9-2.3s-1.8.9-1.9,2.3Z"/>
  <path class="st0" d="M209.6,45.1c-1,.7-2.3,1.3-3.6,1.3-2.1,0-2.7-1.1-2.7-2.8,0-2.3,1.2-3.3,3.7-3.3h2.5v-.5c0-1.2-.4-1.6-2-1.6s-1.9,0-2.6.2c-.4,0-.5,0-.5-.2l-.2-.7c0-.3,0-.4.4-.6.8-.3,2.4-.4,3.3-.4,3.4,0,3.8,1.4,3.8,3.6v3.8c0,.8,0,.8.7.9.3,0,.4,0,.4.3v.8c0,.2-.1.3-.5.4-.3,0-.6,0-.9,0-.9,0-1.5-.3-1.7-1.2h0s0,0,0,0ZM209.5,41.9h-2.4c-1,0-1.6.3-1.6,1.6s.3,1.1,1.2,1.1,2-.5,2.8-.9v-1.8h0Z"/>
  <path class="st0" d="M222,46.2h-1.4c-.2,0-.4-.1-.4-.4v-5.5c0-1.1-.3-1.9-1.4-1.9s-2.1.6-2.7.9v6.5c0,.2,0,.4-.4.4h-1.4c-.3,0-.4-.1-.4-.4v-8.8c0-.3,0-.4.4-.4h1.4c.3,0,.4.1.4.4v.6s0,0,0,0c.7-.5,2.1-1.2,3.3-1.2,2.6,0,2.9,1.7,2.9,3.7v5.6c0,.2,0,.4-.4.4h0Z"/>
  <path class="st0" d="M151.3,53.6c1,0,2.5.1,3.6.6.3.1.4.3.4.6l-.2.8c0,.2-.2.3-.5.3-1-.1-2.1-.3-3.1-.3-2.6,0-3,2.1-3,4.7s.5,4.6,3,4.6,2.1-.1,3.1-.3c.4,0,.4,0,.5.3l.2.7c0,.3,0,.5-.3.6-1,.4-2.6.6-3.6.6-4.3,0-5.3-3.2-5.3-6.5s.8-6.7,5.3-6.7h0Z"/>
  <path class="st0" d="M160.8,66.8c-3.9,0-4.2-2.9-4.2-5.1s.4-4.8,4.2-4.8,4.3,2.5,4.3,4.8-.3,5.1-4.3,5.1ZM160.8,58.8c-1.7,0-2,1-2,3.1s.4,3.1,2,3.1,2.1-1,2.1-3.1-.3-3.1-2.1-3.1Z"/>
  <path class="st0" d="M180.5,66.7h-1.4c-.3,0-.4-.1-.4-.4v-5.5c0-1.4-.3-1.8-1.3-1.8s-1.9.6-2.5.9c0,.2,0,.5,0,1v5.5c0,.2,0,.4-.4.4h-1.4c-.3,0-.3-.1-.3-.4v-5.6c0-1.2-.3-1.8-1.3-1.8s-1.8.5-2.5.9v6.5c0,.2,0,.4-.4.4h-1.4c-.3,0-.3-.1-.3-.4v-8.8c0-.3,0-.4.3-.4h1.4c.3,0,.4.2.4.4v.6h0c.8-.5,1.8-1.1,2.9-1.1,1.1,0,2.1.2,2.7,1.4,1-.7,2.2-1.4,3.4-1.4,2.6,0,2.8,1.7,2.8,3.6v5.7c0,.2,0,.4-.3.4h0Z"/>
  <path class="st0" d="M196.6,66.7h-1.4c-.3,0-.4-.1-.4-.4v-5.5c0-1.4-.3-1.8-1.3-1.8s-1.9.6-2.5.9c0,.2,0,.5,0,1v5.5c0,.2,0,.4-.4.4h-1.4c-.3,0-.3-.1-.3-.4v-5.6c0-1.2-.3-1.8-1.3-1.8s-1.8.5-2.5.9v6.5c0,.2,0,.4-.4.4h-1.4c-.3,0-.3-.1-.3-.4v-8.8c0-.3,0-.4.3-.4h1.4c.3,0,.4.2.4.4v.6h0c.8-.5,1.8-1.1,2.9-1.1,1.1,0,2.1.2,2.7,1.4,1-.7,2.2-1.4,3.4-1.4,2.6,0,2.8,1.7,2.8,3.6v5.7c0,.2,0,.4-.3.4h0Z"/>
  <path class="st0" d="M200.4,55.8c-1,0-1.1-.6-1.1-1.1s.2-1.1,1.1-1.1,1.1.4,1.1,1.1-.2,1.1-1.1,1.1ZM201.4,66.3c0,.2,0,.4-.3.4h-1.4c-.3,0-.4-.1-.4-.4v-8.8c0-.3.1-.4.4-.4h1.4c.3,0,.3.2.3.4v8.8Z"/>
  <path class="st0" d="M207,66.8c-1,0-2.3-.1-3-.4-.4-.2-.5-.3-.4-.6v-.6c.2-.3.3-.3.6-.3.9.1,2.1.2,2.8.2,1.2,0,1.8-.3,1.8-1.1s-.3-1.1-1.6-1.3c-1.9-.3-3.6-.7-3.6-2.8s1.5-2.9,3.7-2.9,2.1.1,3,.4c.3.1.5.3.4.6l-.2.7c0,.3-.2.3-.5.3-.8,0-1.9-.2-2.6-.2-1.2,0-1.5.3-1.5,1.1s.5.9,1.7,1c1.8.3,3.5.6,3.5,3s-1.9,3-3.9,3h0Z"/>
  <path class="st0" d="M216,66.8c-1,0-2.3-.1-3-.4-.4-.2-.5-.3-.4-.6v-.6c.2-.3.3-.3.6-.3.9.1,2.1.2,2.8.2,1.2,0,1.8-.3,1.8-1.1s-.3-1.1-1.6-1.3c-1.9-.3-3.6-.7-3.6-2.8s1.5-2.9,3.7-2.9,2.1.1,3,.4c.3.1.5.3.4.6l-.2.7c0,.3-.2.3-.5.3-.8,0-1.9-.2-2.6-.2-1.2,0-1.5.3-1.5,1.1s.5.9,1.7,1c1.8.3,3.5.6,3.5,3s-1.9,3-3.9,3h0Z"/>
  <path class="st0" d="M223.1,55.8c-1,0-1.1-.6-1.1-1.1s.2-1.1,1.1-1.1,1.1.4,1.1,1.1-.2,1.1-1.1,1.1ZM224.1,66.3c0,.2,0,.4-.3.4h-1.4c-.3,0-.4-.1-.4-.4v-8.8c0-.3.1-.4.4-.4h1.4c.3,0,.3.2.3.4v8.8Z"/>
  <path class="st0" d="M230.5,66.8c-3.9,0-4.2-2.9-4.2-5.1s.4-4.8,4.2-4.8,4.3,2.5,4.3,4.8-.3,5.1-4.3,5.1ZM230.5,58.8c-1.7,0-2,1-2,3.1s.4,3.1,2,3.1,2.1-1,2.1-3.1-.3-3.1-2.1-3.1Z"/>
  <path class="st0" d="M244.5,66.7h-1.4c-.3,0-.4-.1-.4-.4v-5.5c0-1.1-.3-1.9-1.4-1.9s-2.1.6-2.7.9v6.5c0,.2,0,.4-.4.4h-1.4c-.3,0-.4-.1-.4-.4v-8.8c0-.3,0-.4.4-.4h1.4c.3,0,.4.1.4.4v.6s0,0,0,0c.7-.5,2.1-1.2,3.3-1.2,2.6,0,2.9,1.7,2.9,3.7v5.6c0,.2,0,.4-.4.4h0Z"/>
  <path class="st2" d="M257.1,66.7V27.6h-3.3v39.1h3.3Z"/>
</svg>