<svg xmlns="http://www.w3.org/2000/svg" width="250" height="250" viewBox="0 0 250 250" fill="none">

<path opacity="0.2" d="M 244.19,219.38 H 5.81 C 5.14,219.38 4.6,219.85 4.6,220.43 C 4.6,221.01 5.14,221.48 5.81,221.48 H 244.19 C 244.86,221.48 245.4,221.01 245.4,220.43 C 245.4,219.85 244.86,219.38 244.19,219.38 Z" fill="#59686E"/>
<path opacity="0.2" d="M 238.71,193.61 C 237.06,192.77 238.61,188.96 234.65,185.66 C 228.16,180.33 200.19,176.32 187.68,174.82 C 176.08,167.24 160.11,158.17 150.78,156.61 C 137.91,154.31 122.49,154.89 113.75,156.01 C 107.91,156.75 99.78,158.07 96.36,159.68 C 92.94,161.29 86.76,167.48 85.59,170.72 C 84.88,172.91 84.49,175.18 84.38,177.48 L 83.76,197.81 L 82.36,210.22 H 187.86 C 187.59,208.75 187.48,207.26 187.52,205.77 C 187.91,196.19 195.12,189.98 203.28,189.98 C 212.34,189.98 219.71,198.09 219.41,207.23 C 219.36,208.68 219.15,210.12 218.79,211.52 C 224.94,211.19 233.97,210.06 238.51,208.98 C 241.96,208.14 240.71,204.62 239.46,204.21 C 240.36,202.78 241.12,194.96 238.71,193.61 Z M 128.89,174.51 L 110.24,173.72 L 111.21,160.63 L 127.88,159.06 L 128.89,174.51 Z M 135.96,174.51 L 132.92,159.11 C 139.29,159.32 147.91,159.92 152.19,161.53 C 162.08,165.22 170.97,170.79 180.46,177.21 L 135.96,174.51 Z" fill="#9D9D9C"/>
<path opacity="0.2" d="M 203.68,192.31 C 195.51,192.31 190.31,199.84 190.31,206.09 C 190.31,213.21 196.12,219.28 203.56,219.28 C 211.31,219.28 216.82,212.81 216.82,206.29 C 216.82,199.06 210.61,192.31 203.68,192.31 Z" fill="#9D9D9C"/>
<path d="M 101.66,28 H 21.22 C 13.39,28 9.41,36.18 9.41,41.83 V 205.76 C 9.41,213.21 15.8,218.91 21.82,218.91 H 101.31 C 109.09,218.91 113.84,211.34 113.84,205.5 V 42.09 C 113.84,34.29 108.01,28 101.66,28 Z" fill="#293B45"/>
<path d="M 108.43,44.81 H 14.14 V 201.72 H 108.43 V 44.81 Z" fill="#FEFFFE"/>
<path d="M 108.43,44.81 L 14.14,201.72 L 108.43,201.61 V 44.81 Z" fill="#E8E8E8"/>
<path d="M 91.65,62.19 H 31.9 C 26.39,62.19 23.54,67.44 23.54,70.24 V 172.95 C 23.54,177.88 27.62,181.31 31.37,181.31 H 91.34 C 97.04,181.31 99.44,175.47 99.44,172.54 V 70.53 C 99.44,65.41 95.61,62.19 91.65,62.19 Z" fill="#0A1F28"/>
<path d="M 91.39,63.46 H 32.31 C 27.68,63.46 24.91,67.92 24.91,70.39 V 172.41 C 24.91,177.21 28.72,179.96 31.78,179.96 H 91.11 C 96.73,179.96 98.21,174.76 98.21,172.61 V 70.46 C 98.21,65.91 94.81,63.46 91.39,63.46 Z" fill="#F1F2F2" stroke="#0A1F28" stroke-width="0.75" stroke-miterlimit="10"/>
<path d="M 77.89,70.04 H 45.94 C 43.29,70.04 42.12,71.86 42.12,73.94 V 106.08 C 42.12,109.11 44.11,109.98 46.26,109.98 H 77.62 C 80.61,109.98 81.78,108.08 81.78,105.91 V 73.94 C 81.78,71.38 80.43,70.04 77.89,70.04 Z" fill="#D1D3D4"/>
<path d="M 76.97,85.95 H 74.58 L 72.81,82.01 C 71.91,79.97 70.71,79.55 67.91,79.55 H 56.72 C 54.32,79.55 52.84,79.89 51.74,82.22 L 49.81,85.95 H 47.17 C 45.78,85.95 45.71,88.81 47.17,88.81 L 47.68,88.78 C 46.91,89.71 46.78,91.11 46.78,92.71 V 101.01 C 46.78,101.78 47.17,102.23 48.11,102.23 H 50.22 C 51.22,102.23 51.61,101.71 51.61,100.91 V 99.01 H 71.49 V 100.91 C 71.49,101.71 71.88,102.23 72.88,102.23 H 74.65 C 75.72,102.23 76.11,101.64 76.11,100.77 V 92.71 C 76.11,91.22 76.05,89.86 75.31,88.81 L 76.97,88.78 C 78.29,88.78 78.29,85.95 76.97,85.95 Z M 53.13,82.71 C 53.81,81.29 54.64,80.98 56.53,80.98 H 66.81 C 69.31,80.98 70.25,81.36 70.96,83.06 L 72.72,86.93 H 51.19 L 53.13,82.71 Z M 50.63,93.86 C 48.96,93.37 48.06,92.08 48.51,91.08 C 48.96,90.07 49.96,89.93 51.82,90.38 C 53.88,90.91 55.08,91.78 54.95,92.82 C 54.82,93.79 52.71,94.48 50.63,93.86 Z M 71.09,93.86 C 69.01,94.48 67.11,93.79 66.98,92.82 C 66.85,91.78 68.46,90.84 70.32,90.38 C 72.34,89.86 73.51,89.93 74.12,91.01 C 74.77,92.19 73.31,93.34 71.09,93.86 Z" fill="#293B45"/>
<path d="M 33.51,117.59 V 121.38 H 71.49 V 117.59 H 33.51 Z" fill="#293B45"/>
<path d="M 33.51,123.94 V 127.09 H 62.99 V 123.94 H 33.51 Z" fill="#9D9D9C"/>
<path d="M 33.51,131.24 V 134.76 H 89.04 V 131.24 H 33.51 Z" fill="#9D9D9C"/>
<path d="M 33.51,138.31 V 141.61 H 70.32 V 138.31 H 33.51 Z" fill="#9D9D9C"/>
<path d="M 33.84,149.69 V 153.21 H 89.04 V 149.69 H 33.84 Z" fill="#9D9D9C"/>
<path d="M 52.81,158.21 H 35.69 C 34.27,158.21 33.51,159.18 33.51,160.36 V 169.62 C 33.51,171.3 34.52,171.78 35.76,171.78 H 52.61 C 54.41,171.78 54.99,170.61 54.99,169.49 V 160.23 C 54.99,158.87 54.06,158.21 52.81,158.21 Z" fill="#004697"/>
<path d="M 37.99,161.29 H 41.91 C 44.19,161.29 44.91,162.11 44.91,163.4 C 44.91,164.66 43.92,165.11 43.29,165.26 C 44.32,165.46 45.29,165.98 45.29,167.34 C 45.29,168.91 44.06,169.63 42.04,169.63 H 37.99 V 161.29 Z M 41.42,164.72 C 42.36,164.72 42.74,164.38 42.74,163.54 C 42.74,162.71 42.32,162.43 41.39,162.43 H 39.92 V 164.72 H 41.42 Z M 41.67,168.56 C 42.71,168.56 43.16,168.08 43.16,167.11 C 43.16,166.28 42.61,165.76 41.61,165.76 H 39.92 V 168.56 H 41.67 Z" fill="#FEFFFE"/>
<path d="M 48.91,162.91 L 46.52,163.53 V 162.11 L 49.12,161.28 H 50.77 V 169.62 H 48.91 V 162.91 Z" fill="#FEFFFE"/>
<path d="M 239.46,97.19 C 238.18,92.07 237.01,87.99 233.43,86.63 C 229.85,85.27 223.12,83.91 214.19,83.91 C 207.11,83.91 200.03,85.31 197.16,86.63 C 193.12,88.53 190.81,97.19 190.01,103.72 C 189.49,108.21 189.75,109.73 190.14,114.44 C 190.94,123.44 192.74,141.19 194.26,149.62 C 195.43,156.28 198.72,158.81 206.44,159.22 C 211.82,159.56 218.7,159.36 224.72,158.81 C 232.12,158.13 235.05,156.01 236.36,148.11 C 237.75,138.94 239.33,122.56 240.2,109.32 C 240.52,104.9 240.33,101.09 239.46,97.19 Z M 206.04,88.94 C 208.51,88.53 211.93,88.39 213.92,88.39 C 216.72,88.39 220.82,88.53 223.91,88.94 C 227.81,89.49 227.61,93.91 223.96,94.18 C 221.09,94.39 217.13,94.18 214.46,94.18 C 212.06,94.18 209.26,94.32 206.26,93.91 C 203.07,93.43 203.2,89.42 206.04,88.94 Z" fill="#293B45"/>
<path opacity="0.2" d="M 213.59,105.62 C 207.11,106.03 202.19,107.12 200.61,110.49 C 198.9,114.46 199.29,121.91 199.36,122.46 H 208.92 C 209.31,121.84 209.96,121.43 210.76,121.43 H 213.59 V 105.62 Z" fill="#FEFFFE"/>
<path opacity="0.2" d="M 215.61,105.62 C 222.09,106.03 227.34,107.12 228.69,110.49 C 230.15,114.46 230.01,121.91 229.95,122.46 H 221.95 C 221.56,121.84 220.91,121.43 220.11,121.43 H 215.61 V 105.62 Z" fill="#FEFFFE"/>
<path opacity="0.2" d="M 213.59,123.44 H 210.1 C 209.37,123.44 208.72,123.03 208.4,122.39 H 199.61 C 200.06,127.92 200.86,134.11 202.94,136.64 C 204.81,138.94 210.16,139.28 213.59,139.28 V 123.44 Z" fill="#FEFFFE"/>
<path opacity="0.2" d="M 215.61,123.44 H 219.69 C 220.42,123.44 221.07,123.03 221.39,122.39 H 230.13 C 229.68,127.92 228.75,134.45 226.21,136.64 C 223.97,138.6 219.76,139.01 215.61,139.21 V 123.44 Z" fill="#FEFFFE"/>
<path opacity="0.2" d="M 225.46,146.21 C 222.46,146.21 222.2,148.44 222.2,149.8 C 222.2,151.81 223.85,153.49 225.71,153.49 C 228.32,153.49 229.29,151.66 229.29,149.87 C 229.29,148.16 228.12,146.21 225.46,146.21 Z" fill="#FEFFFE"/>
<path d="M 123.21,122.46 V 125.82 H 126.21 V 122.46 H 123.21 Z" fill="#293B45"/>
<path d="M 128.86,122.46 V 125.82 H 131.85 V 122.46 H 128.86 Z" fill="#293B45"/>
<path d="M 134.51,122.46 V 125.82 H 137.5 V 122.46 H 134.51 Z" fill="#293B45"/>
<path d="M 140.16,122.46 V 125.82 H 143.15 V 122.46 H 140.16 Z" fill="#293B45"/>
<path d="M 146.71,122.46 V 125.82 H 149.7 V 122.46 H 146.71 Z" fill="#293B45"/>
<path d="M 152.36,122.46 V 125.82 H 155.35 V 122.46 H 152.36 Z" fill="#293B45"/>
<path d="M 158.01,122.46 V 125.82 H 161 V 122.46 H 158.01 Z" fill="#293B45"/>
<path d="M 164.16,122.46 V 125.82 H 167.15 V 122.46 H 164.16 Z" fill="#293B45"/>
<path d="M 170.31,118.07 V 130.55 L 180.84,123.82 L 170.31,118.07 Z" fill="#293B45"/>
<path d="M 166.49,71.11 L 148.42,87.99 L 142.47,81.74 L 140.01,84.6 L 148.62,92.34 L 166.49,74.01 V 71.11 Z" fill="#004697"/>
<path d="M 166.16,77.71 C 167.01,79.88 167.48,82.28 167.15,85.14 C 165.91,94.01 158.23,101.85 148.88,101.64 C 139.16,101.44 132.49,92.95 132.75,84.73 C 133.01,75.43 140.31,66.63 150.42,66.63 C 155.41,66.63 159.06,68.46 161.21,70.22 L 158.61,72.95 C 156.07,70.97 153.86,70.07 150.22,70.07 C 141.92,70.07 136.23,77.22 136.23,84.6 C 136.23,92.07 142.71,98.87 150.29,98.87 C 158.87,98.87 164.45,91.22 165.15,85.14 C 165.34,83.31 165.02,81.05 164.5,79.62 L 166.16,77.71 Z" fill="#004697"/>
</svg>