<svg xmlns="http://www.w3.org/2000/svg" width="250" height="250" viewBox="0 0 250 250" fill="none">
<path d="M 236.27,54.82 H 161.09 C 154.75,54.82 151.14,59.39 151.14,64.97 V 222.16 C 151.14,223.77 152.12,224.38 153.56,224.38 H 164.25 C 165.79,224.38 166.31,223.22 166.31,222.07 V 154.36 H 237.42 V 219.71 H 242.31 C 243.84,219.71 244.71,220.28 244.71,222.09 V 64.18 C 244.71,58.96 240.97,54.82 236.27,54.82 Z M 239.82,219.71 H 237.42 V 219.7 H 232.94 V 151.94 H 232.95 V 129.79 H 232.94 V 66.83 C 232.94,65.21 232.17,64.61 230.73,64.61 H 164.36 C 162.83,64.61 162.31,65.59 162.31,66.91 V 129.32 V 151.94 V 219.71 H 156.66 V 64.97 C 156.66,61.61 158.22,59.49 161.52,59.49 H 235.84 C 238.46,59.49 239.82,62.03 239.82,64.44 V 219.71 Z" fill="black"/>
<path d="M 166.76,68.82 H 230.31 V 128.31 H 166.76 V 68.82 Z" fill="#E3E3E3"/>
<path d="M 166.76,132.92 H 230.31 V 149.21 H 166.76 V 132.92 Z" fill="#999999"/>
<path d="M 166.76,154.36 H 230.09 V 223.59 H 166.76 V 154.36 Z" fill="#E3E3E3"/>
<path d="M 110.01,71.23 L 108.95,70.01 V 40.29 C 108.95,30.98 101.22,23.51 93.75,23.51 H 20.85 C 11.64,23.51 6.31,32.98 6.31,39.04 V 51.71 L 5.29,52.92 V 59.7 L 6.31,60.91 V 64.91 L 5.29,66.12 V 80.7 L 6.31,81.91 V 85.12 L 5.29,86.33 V 100.31 L 6.31,101.52 V 207.81 C 6.31,217.12 13.11,223.51 21.16,223.51 H 93.75 C 103.18,223.51 108.95,215.16 108.95,208.13 V 96.59 L 110.01,95.38 V 71.23 Z M 103.29,207.11 C 103.29,214.35 97.96,216.91 93.33,216.91 H 21.72 C 14.92,216.91 11.81,212.12 11.81,207.21 V 40.82 C 11.81,34.11 16.93,30.11 21.46,30.11 H 29.72 C 31.71,30.11 31.92,31.09 32.02,32.98 C 32.23,36.46 34.54,38.51 37.91,38.51 H 77.96 C 81.86,38.51 83.39,35.41 83.39,32.98 C 83.39,31.2 83.91,30.11 86.22,30.11 H 93.75 C 100.12,30.11 103.29,35.92 103.29,39.71 V 207.11 Z" fill="#505152"/>
<path d="M 68.38,32.82 C 68.38,31.57 69.21,31.09 70.04,31.09 C 71.11,31.09 71.73,31.91 71.73,32.72 C 71.73,33.71 70.91,34.32 70.14,34.32 C 69.11,34.32 68.38,33.61 68.38,32.82 Z" fill="#87898B"/>
<path d="M 52.18,31.6 H 62.71 C 63.49,31.6 63.8,32.11 63.8,32.72 C 63.8,33.34 63.38,33.81 62.66,33.81 H 52.18 C 51.41,33.81 51.05,33.29 51.05,32.72 C 51.05,32.06 51.51,31.6 52.18,31.6 Z" fill="#87898B"/>
<path d="M 84.68,70.41 H 31.4 C 24.78,70.41 20.41,76.74 20.41,80.91 V 157.72 C 20.41,163.43 25.35,167.71 29.99,167.71 H 84.32 C 90.94,167.71 93.96,161.48 93.96,157.93 V 79.5 C 93.96,74.07 89.42,70.41 84.68,70.41 Z" fill="#505152"/>
<path d="M 89.9,79.81 V 157.31 C 89.9,161.01 87.27,163.43 84.11,163.43 H 32.38 C 28.81,163.43 25.41,160.81 25.41,157.11 V 80.11 C 25.41,75.93 28.57,73.19 31.66,73.19 H 83.9 C 87.68,73.19 89.9,76.65 89.9,79.81 Z" fill="#F0F1F1"/>
<path d="M 134.81,69.14 C 133.62,67.44 130.45,67.65 130.32,70.21 C 130.25,71.51 131.47,72.67 132.21,73.91 C 139.79,86.33 137.19,97.81 130.91,105.25 C 129.72,106.73 132.11,108.91 133.62,107.42 C 142.99,97.66 143.61,82.01 134.81,69.14 Z" fill="#124A93"/>
<path d="M 126.99,74.38 C 125.46,72.41 122.91,73.81 123.83,76.13 C 124.19,77.06 125.06,77.93 125.68,79.19 C 129.26,86.28 128.44,93.81 124.55,99.43 C 123.21,101.55 125.88,103.18 127.31,101.71 C 134.11,94.63 134.11,83.45 126.99,74.38 Z" fill="#124A93"/>
<path d="M 120.22,80.72 C 118.43,79.14 116.69,81.91 117.71,83.74 C 120.27,87.63 120.01,90.93 117.92,93.81 C 116.69,95.65 118.74,97.18 120.32,96.11 C 125.16,92.85 125.78,85.66 120.22,80.72 Z" fill="#124A93"/>
<path d="M 135.48,127.79 C 134.31,128.28 133.79,129.96 134.66,131.12 L 142.13,138.1 L 134.91,144.78 C 133.38,146.21 135.48,148.33 137.11,146.93 L 145.61,138.72 C 146.74,137.63 146.22,136.22 145.45,135.5 L 138.44,128.31 C 137.62,127.48 136.75,127.28 135.48,127.79 Z" fill="#999999"/>
<path d="M 116.11,134.71 H 116.06 C 114.27,134.71 113.65,135.71 113.65,137.02 C 113.65,138.32 114.78,139.04 115.8,139.04 H 115.96 C 117.44,139.04 118.31,138.11 118.31,136.91 C 118.31,135.61 117.39,134.71 116.11,134.71 Z" fill="#87898B"/>
<path d="M 124.55,134.71 H 124.45 C 122.97,134.71 122.14,135.71 122.14,136.81 C 122.14,138.21 123.17,138.93 124.34,138.93 H 124.55 C 125.88,138.93 126.81,137.9 126.81,136.81 C 126.81,135.51 125.78,134.71 124.55,134.71 Z" fill="#87898B"/>
<path d="M 133.53,134.71 H 133.33 C 131.85,134.71 130.92,135.71 130.92,136.81 C 130.92,138.21 131.95,138.93 133.12,138.93 H 133.43 C 134.71,138.93 135.63,137.9 135.63,136.81 C 135.63,135.51 134.61,134.71 133.53,134.71 Z" fill="#87898B"/>
<path d="M 34.85,124.31 C 34.85,122.78 35.72,122.27 36.84,122.27 H 80.93 C 82.31,122.27 82.93,123.19 82.93,124.21 C 82.93,125.41 82.01,126.43 80.88,126.43 H 34.9 C 34.9,126.43 34.85,125.31 34.85,124.31 Z" fill="#999999"/>
<path d="M 32.91,133.79 C 32.91,132.48 33.88,131.66 34.9,131.66 H 62.51 C 63.89,131.66 64.41,132.68 64.41,133.6 C 64.41,134.8 63.38,135.72 62.36,135.72 H 34.9 C 33.73,135.72 32.91,134.7 32.91,133.79 Z" fill="#999999"/>
<path d="M 69.83,133.79 C 69.83,132.48 70.8,131.66 71.82,131.66 H 80.62 C 82.01,131.66 82.52,132.68 82.52,133.6 C 82.52,134.8 81.5,135.72 80.47,135.72 H 71.73 C 70.55,135.72 69.83,134.7 69.83,133.79 Z" fill="#999999"/>
<path d="M 32.8,143.07 C 32.8,141.76 33.78,141.05 34.7,141.05 H 45.9 C 47.28,141.05 47.8,142.07 47.8,142.99 C 47.8,144.19 46.77,144.91 45.75,144.91 H 34.65 C 33.52,144.91 32.8,143.88 32.8,143.07 Z" fill="#999999"/>
<path d="M 52.64,143.07 C 52.64,141.76 53.61,141.05 54.63,141.05 H 80.73 C 82.11,141.05 82.62,142.07 82.62,142.99 C 82.62,144.19 81.6,144.91 80.58,144.91 H 54.58 C 53.46,144.91 52.64,143.88 52.64,143.07 Z" fill="#999999"/>
<path d="M 33.93,152.65 C 33.93,151.35 34.9,150.73 35.82,150.73 H 67.89 C 69.27,150.73 70.45,150.63 70.45,152.76 C 70.45,153.96 69.42,154.78 68.3,154.78 H 35.72 C 34.65,154.78 33.93,153.56 33.93,152.65 Z" fill="#999999"/>
<path d="M 39.98,210.32 C 39.98,209.01 40.8,208.6 41.72,208.6 H 72.34 C 73.52,208.6 73.93,209.22 73.93,210.14 C 73.93,211.16 73.41,212.08 72.49,212.08 H 42.03 C 40.7,212.08 39.98,211.16 39.98,210.32 Z" fill="#505152"/>
<path d="M 58.21,82.01 C 48.31,82.01 41.31,90.62 41.31,98.31 C 41.31,107.11 48.68,114.69 57.75,114.69 C 67.8,114.69 73.72,105.71 73.72,98.62 C 73.72,89.8 66.61,82.01 58.21,82.01 Z M 69.42,89.65 C 71.06,92.07 71.83,94.84 72.03,97.2 H 65.69 C 65.64,95.09 65.43,93.01 65.07,91.09 C 66.61,90.62 68.09,90.11 69.42,89.65 Z M 67.89,87.61 C 66.71,88.13 65.43,88.64 64.1,89.05 C 63.28,86.38 62.1,84.45 61.13,83.33 C 63.74,83.95 66.05,85.45 67.89,87.61 Z M 57.9,84.25 C 59.48,84.25 61.12,86.71 62.25,90.01 C 60.51,90.42 58.72,90.62 57.03,90.62 C 55.86,90.62 54.63,90.47 53.45,90.26 C 54.42,86.71 55.9,84.25 57.9,84.25 Z M 53.25,84.15 C 52.23,85.45 51.26,87.48 50.49,89.9 C 49.21,89.49 47.93,88.98 46.65,88.37 C 48.54,86.23 50.85,84.82 53.25,84.15 Z M 45.22,90.31 C 46.86,91.14 48.54,91.86 50.18,92.38 C 49.77,93.91 49.51,95.55 49.41,97.29 H 44.13 C 44.13,94.93 44.44,92.58 45.22,90.31 Z M 44.44,100.16 H 49.26 C 49.36,101.7 49.62,103.23 49.98,104.63 C 48.64,105.04 47.37,105.56 46.24,106.07 C 45.27,104.22 44.65,102.21 44.44,100.16 Z M 47.83,108.39 C 48.75,107.93 49.72,107.52 50.74,107.16 C 51.41,108.9 52.28,110.31 53.25,111.33 C 51.21,110.61 49.36,109.59 47.83,108.39 Z M 57.85,111.85 C 56.06,111.85 54.53,109.81 53.45,106.54 C 55.14,106.13 56.93,105.92 58.67,105.92 C 59.95,105.92 61.28,106.08 62.56,106.33 C 61.38,109.79 59.64,111.85 57.85,111.85 Z M 63.33,103.91 C 61.54,103.45 59.75,103.24 57.95,103.24 C 56.01,103.24 54.12,103.5 52.33,103.96 C 51.97,102.71 51.76,101.39 51.66,100.09 H 64.05 C 63.95,101.44 63.69,102.71 63.33,103.91 Z M 51.51,97.2 C 51.61,95.76 51.87,94.32 52.23,92.94 C 53.76,93.25 55.35,93.45 56.93,93.45 C 58.92,93.45 60.92,93.14 62.81,92.68 C 63.12,94.12 63.33,95.65 63.43,97.2 H 51.51 Z M 60.92,111.03 C 61.94,109.83 62.86,108.03 63.59,105.81 C 64.97,106.28 66.35,106.85 67.63,107.52 C 65.79,109.31 63.48,110.47 60.92,111.03 Z M 69.37,105.3 C 67.79,104.38 66.1,103.6 64.36,103.03 C 64.77,101.49 65.08,99.9 65.23,98.31 H 72.03 C 71.78,100.83 70.85,103.24 69.37,105.3 Z" fill="#124A93"/>
<path d="M 184.99,28.31 L 188.25,26.62 L 201.96,31.6 L 212.11,27.65 C 214.93,26.41 217.64,26.72 218.92,28.41 C 220.4,30.15 218.76,31.18 215.7,32.72 L 190.66,42.78 C 187.74,43.85 185.29,43.9 182.18,43.9 L 176.31,37.22 L 179.38,35.73 L 187.11,38.72 L 193.43,35.42 L 184.99,28.31 Z" fill="#124A93"/>
</svg>