<svg xmlns="http://www.w3.org/2000/svg" width="200" height="200" fill="none" viewBox="0 0 200 200">
<!-- SVG created with Arrow, by QuiverAI (https://quiver.ai) -->
  <path d="m6.07 24.98v149.6c0 7.01 5.34 11.4 10.46 11.4h55.55c7.13 0 11.29-6.26 11.29-11.4v-149.4c0-7.01-5.34-11.59-10.46-11.59h-56.15c-6.39 0-10.69 5.82-10.69 11.37z" fill="#616C77" stroke="#12181C" stroke-miterlimit="10" stroke-width="2"/>
  <path d="m12.11 29.11v142.1c0 5.91 4.7 8.39 7.8 8.39h48.81c6.96 0 7.7-6.82 7.16-9.92v-140.6c0-5.91-3.74-8.3-7.2-8.3h-8.6c-1 0-0.36 5.12-5.48 5.12h-20.53c-4.48 0-5.06-2.54-5.91-5.02-0.27-0.79-0.97-0.2-7.36-0.2-5.59 0-8.69 3.56-8.69 8.4z" fill="#CED4DA" stroke="#12181C" stroke-miterlimit="10" stroke-width="2"/>
  <path d="m183.6 13.2h-49.01c-6.94 0-11.14 6.23-11.14 11.58v45.7c0 7.43 5.32 11.78 10.97 11.78h48.75c7.89 0 10.91-6.28 10.91-11.35v-46.13c0-6.5-5.32-11.58-10.48-11.58z" fill="#CED4DA" stroke="#12181C" stroke-miterlimit="10" stroke-width="2"/>
  <path d="m189.9 150.1-67.72 19.03c-1.15 3.75-4.05 5.08-6.33 5.08v8.15c0 2.86 2.69 4 3.95 4h70.94c2.81 0 3.82-2.57 3.82-4v-7.51c-5.2-0.82-7.68-4.05-7.68-7.34 0-4.71 3.3-6.76 7.4-7.72v-6.58c0-3.42-2.15-3.76-4.38-3.11z" fill="#B8C0C5" stroke="#12181C" stroke-miterlimit="10" stroke-width="2"/>
  <path d="m111 133.2 69.59-21.56c4.1-1.31 5.36 1.95 5.73 4.07l1.41 6.15c-4.2 1.82-5.51 4.88-5.3 7.51 0.27 3.51 4 7.49 9.35 6.87l2.27 7.51c0.77 3.11-1.85 5.16-3.64 5.61l-68.55 19.65c-3.61 0.96-5.41-1.22-6.01-3.73l-1.55-6.21c4.85-1.52 5.9-5.93 5.53-8.02-1.09-5.81-5.36-6.22-9.78-5.71l-2.41-6.35c-0.69-3.06 0.71-5.06 3.36-5.79z" fill="#F0F6FB" stroke="#12181C" stroke-linecap="round" stroke-linejoin="round" stroke-miterlimit="10" stroke-width="2"/>
  <path d="m166.7 117.2 1.25 2.83" stroke="#12181C" stroke-linecap="round" stroke-miterlimit="10" stroke-width="2.5"/>
  <path d="m168.9 125.8 8.03 23.52" stroke="#12181C" stroke-dasharray="5.08 5.08" stroke-linecap="round" stroke-miterlimit="10" stroke-width="2.5"/>
  <path d="m174.5 158.6-0.05 26.06" stroke="#12181C" stroke-dasharray="5 5" stroke-linecap="round" stroke-linejoin="round" stroke-miterlimit="10" stroke-width="2"/>
  <path d="m139.8 153.1-5.83-9.3 4.32-5.07 7.46 4.73 4.4-8.24 3.76 1.94-0.19 12.38-13.92 3.56z" fill="#B8C0C5" stroke="#12181C" stroke-linecap="round" stroke-linejoin="round" stroke-miterlimit="10" stroke-width="2"/>
  <path d="m139.8 153.1 14.11-3.56c1.1-0.3 4.19 3.28 3.13 3.45l-18.1 5.18c-1.13 0.43-1-1.05-0.59-2.39 0.42-1.34 0.66-2.27 1.45-2.68z" fill="#003889" stroke="#12181C" stroke-linecap="round" stroke-linejoin="round" stroke-miterlimit="10" stroke-width="2"/>
  <path d="m134.4 137.4-3.33-0.17-1.31-4.15" stroke="#12181C" stroke-linecap="round" stroke-linejoin="round" stroke-miterlimit="10" stroke-width="2"/>
  <path d="m131.2 137.8c-1.97-1.1-2.88-0.1-2.19 2.05l3.7 4.93 5.45-6.18c-1.06-0.8-3.11-1.55-6.96-0.8z" fill="#616C77" stroke="#12181C" stroke-linecap="round" stroke-linejoin="round" stroke-miterlimit="10" stroke-width="2"/>
  <path d="m150.8 127 1.35 3.49c2.01-0.69 4.04 0.85 3.56 3.32l-0.83 2.3v2.59l-7.53-3.76 3.3-3c1.26-1 0.38-3.44 0.15-4.94z" fill="#616C77" stroke="#12181C" stroke-linecap="round" stroke-linejoin="round" stroke-miterlimit="10" stroke-width="2"/>
  <path d="m91.09 57.89h-62.13c-6.16 0-10.35 5.71-10.35 9.97v59.12c0 5.85 5.16 9.51 9.4 9.51h62.92c6.73 0 9.11-6.27 9.11-9.37v-58.6c0-6.07-4.89-10.63-8.95-10.63z" fill="#F0F6FB" stroke="#12181C" stroke-miterlimit="10" stroke-width="2"/>
  <path d="m30.88 107.3c0-0.82 0.75-1.06 1.05-1.06h56.93c0.7 0 1.11 0.39 1.11 1.06 0 0.81-0.58 1.03-1.18 1.03h-57.06c-0.74 0-0.85-0.72-0.85-1.03z" fill="#6C7883"/>
  <path d="m30.03 115.6c0-0.82 0.75-1.05 1.06-1.05h57.63c0.7 0 1.11 0.38 1.11 1.05 0 0.82-0.58 1.03-1.18 1.03h-57.63c-0.75 0.01-0.99-0.72-0.99-1.03z" fill="#6C7883"/>
  <path d="m30.03 124.5c0-0.81 0.75-1.05 1.06-1.05h42.54c0.7 0 1.11 0.38 1.11 1.05 0 0.82-0.58 1.04-1.18 1.04h-42.54c-0.75 0-0.99-0.73-0.99-1.04z" fill="#6C7883"/>
  <path d="m118.4 47.5-4.75-5.48" stroke="#12181C" stroke-linecap="round" stroke-miterlimit="10" stroke-width="2.25"/>
  <path d="m113.6 52.62 4.99-5.15" stroke="#12181C" stroke-linecap="round" stroke-miterlimit="10" stroke-width="2.25"/>
  <path d="m89.97 47.62h0.22" stroke="#12181C" stroke-linecap="round" stroke-linejoin="round" stroke-width="3"/>
  <path d="m95.83 47.62h12.11" stroke="#12181C" stroke-dasharray="0.3 5.88" stroke-linecap="round" stroke-linejoin="round" stroke-width="3"/>
  <path d="m107.9 47.62h0.22" stroke="#12181C" stroke-linecap="round" stroke-linejoin="round" stroke-width="3"/>
  <path d="m141.1 48.31h1.18v10.59h-2.18c-2.05 0-3.34-1.68-3.34-2.85v-4.71c0-2.04 1.94-3.03 4.34-3.03z" fill="#616C77" stroke="#12181C" stroke-linecap="round" stroke-linejoin="round" stroke-miterlimit="10" stroke-width="2"/>
  <path d="m176.2 48.31h-1.18v10.59h1.62c2.47 0 3.33-1.95 3.33-3.12v-4.17c0-2.05-1.33-3.3-3.77-3.3z" fill="#616C77" stroke="#12181C" stroke-linecap="round" stroke-linejoin="round" stroke-miterlimit="10" stroke-width="2"/>
  <path d="m146.8 40.28h23.84c3.7 0 4.6 3.32 4.6 5.11v17.26c0 3.56-2.92 5.46-5.29 5.46h-22.54c-4.23 0-5.46-3.33-5.46-4.98v-17.22c0-3.29 2.49-5.63 4.85-5.63z" fill="#0052A5" stroke="#12181C" stroke-linecap="round" stroke-linejoin="round" stroke-miterlimit="10" stroke-width="2"/>
  <path d="m158.1 28.26c-2.75 0-2.99 2.37-2.99 3.25 0 2.28 2.05 3.25 2.99 3.25 2.24 0 3.3-1.9 3.3-3.25 0-2.09-1.59-3.25-3.3-3.25z" fill="#003889" stroke="#12181C" stroke-linecap="round" stroke-linejoin="round" stroke-miterlimit="10" stroke-width="2"/>
  <path d="m158.1 34.62v5.66" stroke="#12181C" stroke-linecap="round" stroke-linejoin="round" stroke-miterlimit="10" stroke-width="2"/>
  <path d="m150.8 48.36c-2.5 0-2.72 2-2.72 2.52 0 1.86 1.58 2.68 2.58 2.68 2.18 0 2.9-1.68 2.9-2.65 0-1.68-1.47-2.55-2.76-2.55z" fill="#F0F6FB" stroke="#12181C" stroke-linecap="round" stroke-linejoin="round" stroke-miterlimit="10" stroke-width="2"/>
  <path d="m166.5 48.36c-2.5 0-2.72 2-2.72 2.52 0 1.86 1.58 2.68 2.58 2.68 2.17 0 2.9-1.68 2.9-2.65 0-1.68-1.47-2.55-2.76-2.55z" fill="#F0F6FB" stroke="#12181C" stroke-linecap="round" stroke-linejoin="round" stroke-miterlimit="10" stroke-width="2"/>
  <path d="m152.7 60.31c1.87 0.41 3.78 0.48 5.52 0.48 2.11 0 3.73-0.14 5.85-0.55" stroke="#12181C" stroke-linecap="round" stroke-linejoin="round" stroke-miterlimit="10" stroke-width="2.25"/>
  <path d="m152 107.1 5.52 5.75 5.38-5.75" stroke="#12181C" stroke-linecap="round" stroke-linejoin="round" stroke-miterlimit="10" stroke-width="2.25"/>
  <path d="m157.5 88.21v15.88" stroke="#12181C" stroke-dasharray="0.3 5.8" stroke-linecap="round" stroke-linejoin="round" stroke-width="3"/>
  <path d="m47.26 74.43c0.17-1.22 1.46-1.55 1.85-1.55 4.16-0.45 9.85-3.97 10.7-4.55 0.68-0.45 1.16-0.28 1.57 0 5.52 3.83 9.38 4.34 11.03 4.55 0.6 0.07 1.54 0.64 1.54 1.55 0.34 4.05 0.27 7.44-0.14 9.38-1.54 9.1-8.89 15.05-13.38 16.05-4-1.1-11.6-6.23-13.65-16.05-0.31-1.48-0.2-6.09 0.48-9.38z" fill="#0047A1" stroke="#12181C" stroke-linecap="round" stroke-linejoin="round" stroke-miterlimit="10" stroke-width="2"/>
</svg>