<svg xmlns="http://www.w3.org/2000/svg" viewBox="0 0 64 64" fill="none">
<path d="M 139.78,102.5 H 118.06 V 102.51 H 118.04 V 116.42 H 127.92 V 110.99 H 139.18 C 148.82,110.99 152.72,118.38 152.72,124.75 C 152.72,132.54 146.92,138.61 139.07,138.61 H 127.92 V 133.08 H 117.84 V 147.09 H 139.78 C 153.96,147.09 163.71,137.66 163.71,124.75 C 163.71,112.11 154.71,102.5 139.78,102.5 Z" fill="#CD8A2A" transform="translate(-109 -93)"/>
<path d="M 145.39,122.16 L 131.14,122.18 C 130.97,122.18 130.82,122.05 130.79,121.88 C 130.33,119.27 128.81,118.38 125.17,118.38 H 121.09 C 118.59,118.38 117.84,119.98 117.84,122.79 V 126.29 C 117.84,129.46 118.59,130.68 120.78,130.68 H 125.23 C 128.28,130.68 129.96,129.99 130.72,127.79 C 130.78,127.61 130.96,127.5 131.15,127.54 C 131.72,127.67 132.97,127.93 133.44,127.93 C 133.88,127.93 134.73,127.19 135.06,127.19 C 135.39,127.19 136.26,127.72 136.71,127.72 C 137.16,127.72 137.94,127.19 138.29,127.19 C 138.65,127.19 139.54,127.72 139.97,127.72 C 140.41,127.72 141.27,127.08 141.71,127.08 C 142.06,127.08 142.78,127.72 143.18,127.72 C 143.91,127.72 147.12,125.37 147.12,124.64 C 147.12,123.81 146.12,122.69 145.39,122.16 Z M 122.42,127.11 C 122.42,127.66 122.08,127.93 121.35,127.93 C 120.46,127.93 120.14,127.71 120.14,127.11 V 122.05 C 120.14,121.31 120.52,121.03 121.35,121.03 C 122.14,121.03 122.42,121.41 122.42,122.05 V 127.11 Z M 145.84,124.81 H 131.81 C 131.52,124.81 131.29,124.58 131.29,124.29 C 131.29,124 131.52,123.77 131.81,123.77 H 145.84 C 146.13,123.77 146.37,124 146.37,124.29 C 146.37,124.58 146.13,124.81 145.84,124.81 Z" fill="#CD8A2A" transform="translate(-109 -93)"/>
</svg>
