<svg xmlns="http://www.w3.org/2000/svg" width="185" height="220" viewBox="0 0 185 220" fill="none">
<path d="M 125.94,17.9 C 125.38,16.66 125.12,17.37 125.38,18.73 C 127.17,27.71 128.72,39.93 127.72,48.86 C 125.68,68.09 111.07,85.11 92.11,85.11 C 73.14,85.11 60.12,68.01 57.21,52.53 C 55.32,42.77 57.62,30.71 59.59,20.06 C 59.81,18.86 59.29,17.59 58.73,18.9 C 54.11,29.78 52.19,40.02 52.5,51.95 C 52.92,67.71 59.77,77.86 73.93,87.89 C 86.31,96.61 89.45,99.68 89.45,114.9 V 150.41 C 81.37,151.21 75.41,152.28 71.72,153.69 C 68.98,154.71 67.71,155.73 67.71,156.98 C 67.71,160.78 78.76,162.45 92.11,162.45 C 103.47,162.45 117.28,160.34 117.28,156.93 C 117.28,154.32 112.36,153.21 109.22,152.5 C 105.91,151.71 100.35,150.86 94.48,150.32 V 114.81 C 94.48,100.16 98.22,96.01 107.89,89.16 C 120.73,79.86 131.78,72.61 132.34,52.91 C 132.69,42.72 130.08,27.84 125.94,17.9 Z M 107.91,156.51 C 107.91,158.44 100.88,159.15 92.11,159.15 C 83.34,159.15 77.12,158.08 77.12,156.41 C 77.12,154.48 81.21,153.32 91.28,153.32 C 100.05,153.32 107.91,154.57 107.91,156.51 Z" fill="#641A2D"/>
<path d="M 131.18,6 H 109.01 V 7.89 C 114.83,7.89 117.89,9.29 116.77,15.02 C 116.29,17.59 113.09,24.92 111.38,28.97 L 95.32,66.16 L 76.06,20.11 C 74.81,16.81 73.78,13.98 73.78,12.18 C 73.78,9.12 75.93,7.96 80.06,7.87 V 6 H 53.42 V 7.89 C 58.71,7.89 60.81,9.73 63.14,15.2 L 89.91,78.81 C 90.48,80.31 92.98,80.31 93.41,78.9 L 118.82,19.93 C 122.91,10.41 126.66,7.89 131.18,7.89 V 6 Z" fill="#641A2D"/>
<path d="M 25.62,213.79 L 12.63,183.82 C 11.47,180.95 10.67,179.83 7.76,179.83 V 178.76 H 21.16 V 179.83 C 17.51,179.83 17.03,180.95 18.15,183.78 L 27.32,207.01 L 36.62,184.04 C 37.78,181.31 37.03,179.83 33.38,179.83 V 178.76 H 43.66 V 179.83 C 41.15,179.83 39.61,181.08 38.21,184.6 L 26.23,213.79 H 25.62 Z" fill="#641A2D"/>
<path d="M 47.62,213 V 211.93 C 51.08,211.93 51.65,210.81 51.65,206.11 V 185.8 C 51.65,181.1 51.08,179.98 47.62,179.98 V 178.91 H 60.18 V 179.98 C 56.72,179.98 56.16,181.1 56.16,185.8 V 206.11 C 56.16,210.81 56.72,211.93 60.18,211.93 V 213 H 47.62 Z" fill="#641A2D"/>
<path d="M 96.53,213.79 L 72.71,184.39 V 206.11 C 72.71,210.81 73.27,211.93 76.92,211.93 V 213 H 66.64 V 211.93 C 70.06,211.93 70.67,210.81 70.67,206.11 V 185.8 C 70.67,181.1 70.06,179.98 66.64,179.98 V 178.91 H 73.62 L 95.78,205.94 V 186.32 C 95.78,181.62 95.21,179.98 91.56,179.98 V 178.91 H 102.35 V 179.98 C 98.93,179.98 98.32,181.1 98.32,185.8 V 213.79 H 96.53 Z" fill="#641A2D"/>
<path d="M 127.55,213.92 C 116.41,213.92 108.91,205.72 108.91,196.66 C 108.91,187.51 116.72,178.74 127.73,178.74 C 137.72,178.74 144.92,187.07 144.92,196.31 C 144.92,205.32 137.5,213.92 127.55,213.92 Z M 127.12,179.98 C 117.91,179.98 114.31,188.58 114.31,195.34 C 114.31,203.98 119.71,212.23 127.86,212.23 C 136.11,212.23 139.91,204.28 139.91,197.12 C 139.91,188.88 134.41,179.98 127.12,179.98 Z" fill="#641A2D"/>
<path d="M 153.78,211.66 V 202.42 H 154.94 C 155.69,208.77 159.48,212.06 164.68,212.06 C 169.11,212.06 172.41,209.68 172.41,205.41 C 172.41,202.11 170.32,200.06 165.53,198.02 L 162.71,196.86 C 158.15,194.93 154.94,192.68 154.94,187.42 C 154.94,182.17 159.26,178.74 165.31,178.74 C 168.61,178.74 171.12,179.66 173.45,179.98 L 174.71,179.41 V 188.18 H 173.54 C 172.88,183.52 170.01,180.46 165.41,180.46 C 161.41,180.46 158.91,182.97 158.91,186.53 C 158.91,189.78 161.15,191.62 165.19,193.31 L 168.06,194.51 C 173.93,197.02 177.03,199.26 177.03,204.56 C 177.03,210.43 172.28,213.77 165.71,213.77 C 161.82,213.79 158.41,212.63 155.16,211.66 H 153.78 Z" fill="#641A2D"/>
</svg>