<svg width="199" height="103" viewBox="0 0 199 103" fill="none" xmlns="http://www.w3.org/2000/svg">
<path d="M160.281 65.7997C158.68 65.7997 157.211 65.6056 155.873 65.2173C154.534 64.8032 153.327 64.1949 152.252 63.3924C151.176 62.59 150.218 61.6193 149.378 60.4803L152.724 56.7529C154.01 58.5131 155.269 59.7297 156.502 60.4027C157.736 61.0757 159.126 61.4122 160.675 61.4122C161.567 61.4122 162.38 61.2828 163.115 61.0239C163.85 60.7392 164.427 60.3639 164.847 59.8979C165.266 59.4061 165.476 58.8496 165.476 58.2283C165.476 57.7883 165.385 57.3871 165.201 57.0247C165.043 56.6364 164.794 56.2999 164.453 56.0152C164.112 55.7045 163.692 55.4198 163.194 55.161C162.695 54.9021 162.131 54.6821 161.501 54.5009C160.871 54.3197 160.176 54.1514 159.415 53.9961C157.972 53.7114 156.712 53.3361 155.637 52.8701C154.561 52.3783 153.655 51.783 152.921 51.0841C152.186 50.3593 151.648 49.5568 151.307 48.6768C150.966 47.7708 150.795 46.7483 150.795 45.6094C150.795 44.4704 151.045 43.4221 151.543 42.4643C152.068 41.5066 152.776 40.6783 153.669 39.9794C154.561 39.2805 155.597 38.7369 156.778 38.3486C157.959 37.9603 159.231 37.7662 160.596 37.7662C162.144 37.7662 163.522 37.9474 164.729 38.3098C165.962 38.6722 167.038 39.2158 167.956 39.9406C168.901 40.6394 169.675 41.4937 170.278 42.5032L166.893 45.8035C166.369 45.0011 165.778 44.341 165.122 43.8233C164.466 43.2797 163.758 42.8785 162.997 42.6197C162.236 42.3349 161.435 42.1925 160.596 42.1925C159.651 42.1925 158.825 42.322 158.116 42.5808C157.434 42.8397 156.896 43.215 156.502 43.7068C156.109 44.1728 155.912 44.7422 155.912 45.4152C155.912 45.9329 156.03 46.3989 156.266 46.813C156.502 47.2013 156.83 47.5508 157.25 47.8614C157.696 48.172 158.26 48.4438 158.943 48.6768C159.625 48.9097 160.399 49.1168 161.265 49.298C162.708 49.5827 164.007 49.971 165.162 50.4628C166.316 50.9288 167.3 51.4982 168.113 52.1712C168.927 52.8184 169.544 53.569 169.963 54.4232C170.383 55.2516 170.593 56.1834 170.593 57.2188C170.593 59.0049 170.16 60.5451 169.294 61.8393C168.455 63.1077 167.261 64.0913 165.713 64.7902C164.164 65.4632 162.354 65.7997 160.281 65.7997Z" fill="black"/>
<path d="M126.709 65.7997C124.741 65.7997 122.917 65.4503 121.238 64.7514C119.558 64.0525 118.089 63.0818 116.829 61.8393C115.596 60.5709 114.638 59.0825 113.956 57.3741C113.274 55.6657 112.933 53.802 112.933 51.783C112.933 49.7639 113.274 47.9002 113.956 46.1918C114.638 44.4834 115.596 43.0079 116.829 41.7654C118.089 40.4971 119.558 39.5134 121.238 38.8146C122.917 38.1157 124.741 37.7662 126.709 37.7662C128.703 37.7662 130.54 38.1157 132.219 38.8146C133.898 39.5134 135.355 40.4971 136.588 41.7654C137.821 43.0338 138.779 44.5222 139.461 46.2306C140.143 47.9131 140.484 49.7639 140.484 51.783C140.484 53.7761 140.143 55.6269 139.461 57.3353C138.779 59.0437 137.821 60.5321 136.588 61.8005C135.355 63.0689 133.898 64.0525 132.219 64.7514C130.54 65.4503 128.703 65.7997 126.709 65.7997ZM126.709 60.9851C127.968 60.9851 129.11 60.7651 130.133 60.325C131.182 59.8591 132.088 59.212 132.849 58.3837C133.61 57.5294 134.2 56.5458 134.62 55.4328C135.066 54.3197 135.289 53.1031 135.289 51.783C135.289 50.4628 135.066 49.2462 134.62 48.1332C134.2 47.0201 133.61 46.0494 132.849 45.2211C132.088 44.3669 131.182 43.7198 130.133 43.2797C129.11 42.8138 127.968 42.5808 126.709 42.5808C125.475 42.5808 124.334 42.8138 123.284 43.2797C122.235 43.7198 121.329 44.354 120.569 45.1823C119.808 46.0106 119.217 46.9813 118.797 48.0943C118.378 49.2074 118.168 50.4369 118.168 51.783C118.168 53.1031 118.378 54.3326 118.797 55.4716C119.217 56.5846 119.808 57.5553 120.569 58.3837C121.329 59.212 122.235 59.8591 123.284 60.325C124.334 60.7651 125.475 60.9851 126.709 60.9851Z" fill="black"/>
<path d="M79.5231 65.4115V38.2321H90.5831C92.5773 38.2321 94.3747 38.5557 95.9753 39.2028C97.6022 39.8499 98.9929 40.7818 100.147 41.9984C101.328 43.215 102.22 44.6516 102.824 46.3083C103.454 47.9649 103.769 49.8028 103.769 51.8218C103.769 53.8408 103.454 55.6916 102.824 57.3741C102.22 59.0308 101.341 60.4674 100.187 61.684C99.0323 62.8747 97.6416 63.7936 96.0147 64.4408C94.3879 65.0879 92.5773 65.4115 90.5831 65.4115H79.5231ZM84.6398 61.4899L84.2462 60.7521H90.3863C91.6721 60.7521 92.8135 60.5451 93.8106 60.1309C94.8339 59.7167 95.6998 59.1214 96.4083 58.3448C97.1168 57.5683 97.6547 56.6364 98.022 55.5492C98.3894 54.4362 98.5731 53.1937 98.5731 51.8218C98.5731 50.4499 98.3894 49.2203 98.022 48.1332C97.6547 47.0201 97.1037 46.0753 96.3689 45.2988C95.6605 44.5222 94.8077 43.9268 93.8106 43.5127C92.8135 43.0985 91.6721 42.8914 90.3863 42.8914H84.1282L84.6398 42.2314V61.4899Z" fill="black"/>
<path d="M62.1668 65.4115V38.2321H67.008V65.4115H62.1668Z" fill="black"/>
<path d="M36.864 65.4115L25.8433 38.2321H31.4323L37.5724 53.802C37.8873 54.6044 38.1628 55.3292 38.399 55.9763C38.6351 56.5976 38.845 57.1671 39.0287 57.6848C39.2124 58.2025 39.3698 58.7072 39.501 59.199C39.6585 59.6909 39.829 60.2086 40.0127 60.7521H38.9106C39.0943 60.0532 39.2911 59.3673 39.501 58.6943C39.711 57.9954 39.9471 57.2577 40.2095 56.4811C40.4981 55.7045 40.8393 54.8115 41.2328 53.802L46.9793 38.2321H52.6077L41.5084 65.4115H36.864Z" fill="black"/>
<path fill-rule="evenodd" clip-rule="evenodd" d="M159.02 99.8158L193.819 79.9957C194.719 79.4834 195.273 78.5366 195.273 77.512V37.8718H199V77.512C199 79.8502 197.735 82.0108 195.683 83.1799L160.883 103L159.02 99.8158Z" fill="black"/>
<path fill-rule="evenodd" clip-rule="evenodd" d="M3.72722 25.488L3.72722 65.1282H3.51292e-06L0 25.488C-2.07215e-07 23.1498 1.26452 20.9892 3.31722 19.8201L38.1168 0L39.9804 3.18425L5.18083 23.0043C4.28133 23.5166 3.72722 24.4634 3.72722 25.488Z" fill="black"/>
</svg>
