<svg xmlns="http://www.w3.org/2000/svg" viewBox="3 101 243 48" fill="none">
<path d="M 139.78,102.5 H 118.06 V 102.51 H 118.04 V 116.42 H 127.92 V 110.99 H 139.18 C 148.82,110.99 152.72,118.38 152.72,124.75 C 152.72,132.54 146.92,138.61 139.07,138.61 H 127.92 V 133.08 H 117.84 V 147.09 H 139.78 C 153.96,147.09 163.71,137.66 163.71,124.75 C 163.71,112.11 154.71,102.5 139.78,102.5 Z" fill="#CD8A2A"/>
<path d="M 145.39,122.16 L 131.14,122.18 C 130.97,122.18 130.82,122.05 130.79,121.88 C 130.33,119.27 128.81,118.38 125.17,118.38 H 121.09 C 118.59,118.38 117.84,119.98 117.84,122.79 V 126.29 C 117.84,129.46 118.59,130.68 120.78,130.68 H 125.23 C 128.28,130.68 129.96,129.99 130.72,127.79 C 130.78,127.61 130.96,127.5 131.15,127.54 C 131.72,127.67 132.97,127.93 133.44,127.93 C 133.88,127.93 134.73,127.19 135.06,127.19 C 135.39,127.19 136.26,127.72 136.71,127.72 C 137.16,127.72 137.94,127.19 138.29,127.19 C 138.65,127.19 139.54,127.72 139.97,127.72 C 140.41,127.72 141.27,127.08 141.71,127.08 C 142.06,127.08 142.78,127.72 143.18,127.72 C 143.91,127.72 147.12,125.37 147.12,124.64 C 147.12,123.81 146.12,122.69 145.39,122.16 Z M 122.42,127.11 C 122.42,127.66 122.08,127.93 121.35,127.93 C 120.46,127.93 120.14,127.71 120.14,127.11 V 122.05 C 120.14,121.31 120.52,121.03 121.35,121.03 C 122.14,121.03 122.42,121.41 122.42,122.05 V 127.11 Z M 145.84,124.81 H 131.81 C 131.52,124.81 131.29,124.58 131.29,124.29 C 131.29,124 131.52,123.77 131.81,123.77 H 145.84 C 146.13,123.77 146.37,124 146.37,124.29 C 146.37,124.58 146.13,124.81 145.84,124.81 Z" fill="#CD8A2A"/>
<path d="M 29.93,114.06 L 19.28,135.96 H 14.06 L 5,114.06 H 10.69 L 16.95,129.11 L 24.41,114.06 H 29.93 Z" fill="#0D344E"/>
<path d="M 31.75,114.06 H 37.19 V 135.96 H 31.75 V 114.06 Z" fill="#0D344E"/>
<path d="M 42.79,114.06 H 53.13 C 61.01,114.06 64.72,119.07 64.72,124.72 C 64.72,130.91 60.26,135.96 52.84,135.96 H 42.79 V 114.06 Z M 52.66,131.61 C 57.46,131.61 59.59,128.11 59.59,124.72 C 59.59,120.97 57.21,118.19 52.84,118.19 H 47.91 V 131.61 H 52.66 Z" fill="#0D344E"/>
<path d="M 67.31,125.01 C 67.31,117.93 72.63,113.62 79.98,113.62 C 87.47,113.62 92.31,118.71 92.31,124.9 C 92.31,131.71 86.71,136.41 79.84,136.41 C 72.52,136.41 67.31,131.61 67.31,125.01 Z M 79.87,118.08 C 75.25,118.08 72.7,121.29 72.7,125.01 C 72.7,129.14 75.71,132.11 79.8,132.11 C 84.57,132.11 86.92,128.71 86.92,125.01 C 86.92,121.08 84.11,118.08 79.87,118.08 Z" fill="#0D344E"/>
<path d="M 95.11,129.62 C 97.18,131.09 99.73,132.04 103.72,132.04 C 105.68,132.04 108.34,131.43 108.34,129.73 C 108.34,128.07 106.53,127.71 104.01,127.22 C 99.36,126.27 95.51,124.83 95.51,120.41 C 95.51,116.52 99.47,113.84 104.76,113.8 C 107.51,113.77 110.28,114.47 112.66,115.53 L 111.12,119.62 C 108.92,118.46 106.68,117.89 104.76,117.89 C 102.02,117.89 100.52,118.92 100.52,120.23 C 100.52,121.64 102.31,122.3 105.22,122.94 C 110.43,124.1 113.39,125.76 113.39,129.62 C 113.39,133.86 108.74,136.17 103.86,136.13 C 99.73,136.1 96.72,135.04 94.72,133.6 L 95.11,129.62 Z" fill="#0D344E"/>
<path d="M 168.29,114.06 H 178.41 C 185.11,114.06 187.38,117.97 187.38,121.72 C 187.38,124.61 185.88,127.26 182.81,128.67 L 187.92,135.96 H 182.22 L 178.22,129.7 H 173.32 V 135.96 H 168.29 V 114.06 Z M 177.89,125.88 C 181.06,125.88 182.37,123.71 182.37,121.72 C 182.37,119.42 180.74,117.86 178.07,117.86 H 173.32 V 125.88 H 177.89 Z" fill="#0D344E"/>
<path d="M 191.17,114.06 H 196.31 V 135.96 H 191.17 V 114.06 Z" fill="#0D344E"/>
<path d="M 223.91,114.06 L 213.57,135.96 H 208.72 L 199.12,114.06 H 204.96 L 211.59,129.62 L 219.44,114.06 H 223.91 Z" fill="#0D344E"/>
<path d="M 226.21,114.06 H 243.68 V 118.04 H 231.63 V 122.91 H 242.31 V 126.63 H 231.63 V 131.97 H 243.97 V 135.96 H 226.21 V 114.06 Z" fill="#0D344E"/>
</svg>